<?xml version="1.0" encoding="utf-8" standalone="no"?>
<!DOCTYPE svg PUBLIC "-//W3C//DTD SVG 1.1//EN"
  "http://www.w3.org/Graphics/SVG/1.1/DTD/svg11.dtd">
<!-- Created with matplotlib (http://matplotlib.org/) -->
<svg height="360pt" version="1.1" viewBox="0 0 720 360" width="720pt" xmlns="http://www.w3.org/2000/svg" xmlns:xlink="http://www.w3.org/1999/xlink">
 <defs>
  <style type="text/css">
*{stroke-linecap:butt;stroke-linejoin:round;}
  </style>
 </defs>
 <g id="figure_1">
  <g id="patch_1">
   <path d="M 0 360 
L 720 360 
L 720 0 
L 0 0 
z
" style="fill:#ffffff;"/>
  </g>
  <g id="axes_1">
   <g id="patch_2">
    <path d="M 90 320.4 
L 343.636364 320.4 
L 343.636364 43.2 
L 90 43.2 
z
" style="fill:#ffffff;"/>
   </g>
   <g id="matplotlib.axis_1">
    <g id="xtick_1">
     <g id="line2d_1">
      <path clip-path="url(#p7ab55d09e1)" d="M 101.528926 320.4 
L 101.528926 43.2 
" style="fill:none;stroke:#b0b0b0;stroke-linecap:square;stroke-width:0.8;"/>
     </g>
     <g id="line2d_2">
      <defs>
       <path d="M 0 0 
L 0 3.5 
" id="mc931d510e9" style="stroke:#000000;stroke-width:0.8;"/>
      </defs>
      <g>
       <use style="stroke:#000000;stroke-width:0.8;" x="101.528926" xlink:href="#mc931d510e9" y="320.4"/>
      </g>
     </g>
     <g id="text_1">
      <!-- 0.0 -->
      <defs>
       <path d="M 31.78125 66.40625 
Q 24.171875 66.40625 20.328125 58.90625 
Q 16.5 51.421875 16.5 36.375 
Q 16.5 21.390625 20.328125 13.890625 
Q 24.171875 6.390625 31.78125 6.390625 
Q 39.453125 6.390625 43.28125 13.890625 
Q 47.125 21.390625 47.125 36.375 
Q 47.125 51.421875 43.28125 58.90625 
Q 39.453125 66.40625 31.78125 66.40625 
M 31.78125 74.21875 
Q 44.046875 74.21875 50.515625 64.515625 
Q 56.984375 54.828125 56.984375 36.375 
Q 56.984375 17.96875 50.515625 8.265625 
Q 44.046875 -1.421875 31.78125 -1.421875 
Q 19.53125 -1.421875 13.0625 8.265625 
Q 6.59375 17.96875 6.59375 36.375 
Q 6.59375 54.828125 13.0625 64.515625 
Q 19.53125 74.21875 31.78125 74.21875 
" id="DejaVuSans-30"/>
       <path d="M 10.6875 12.40625 
L 21 12.40625 
L 21 0 
L 10.6875 0 
z
" id="DejaVuSans-2e"/>
      </defs>
      <g transform="translate(93.577363 334.998438)scale(0.1 -0.1)">
       <use xlink:href="#DejaVuSans-30"/>
       <use x="63.623047" xlink:href="#DejaVuSans-2e"/>
       <use x="95.410156" xlink:href="#DejaVuSans-30"/>
      </g>
     </g>
    </g>
    <g id="xtick_2">
     <g id="line2d_3">
      <path clip-path="url(#p7ab55d09e1)" d="M 147.644628 320.4 
L 147.644628 43.2 
" style="fill:none;stroke:#b0b0b0;stroke-linecap:square;stroke-width:0.8;"/>
     </g>
     <g id="line2d_4">
      <g>
       <use style="stroke:#000000;stroke-width:0.8;" x="147.644628" xlink:href="#mc931d510e9" y="320.4"/>
      </g>
     </g>
     <g id="text_2">
      <!-- 0.2 -->
      <defs>
       <path d="M 19.1875 8.296875 
L 53.609375 8.296875 
L 53.609375 0 
L 7.328125 0 
L 7.328125 8.296875 
Q 12.9375 14.109375 22.625 23.890625 
Q 32.328125 33.6875 34.8125 36.53125 
Q 39.546875 41.84375 41.421875 45.53125 
Q 43.3125 49.21875 43.3125 52.78125 
Q 43.3125 58.59375 39.234375 62.25 
Q 35.15625 65.921875 28.609375 65.921875 
Q 23.96875 65.921875 18.8125 64.3125 
Q 13.671875 62.703125 7.8125 59.421875 
L 7.8125 69.390625 
Q 13.765625 71.78125 18.9375 73 
Q 24.125 74.21875 28.421875 74.21875 
Q 39.75 74.21875 46.484375 68.546875 
Q 53.21875 62.890625 53.21875 53.421875 
Q 53.21875 48.921875 51.53125 44.890625 
Q 49.859375 40.875 45.40625 35.40625 
Q 44.1875 33.984375 37.640625 27.21875 
Q 31.109375 20.453125 19.1875 8.296875 
" id="DejaVuSans-32"/>
      </defs>
      <g transform="translate(139.693066 334.998438)scale(0.1 -0.1)">
       <use xlink:href="#DejaVuSans-30"/>
       <use x="63.623047" xlink:href="#DejaVuSans-2e"/>
       <use x="95.410156" xlink:href="#DejaVuSans-32"/>
      </g>
     </g>
    </g>
    <g id="xtick_3">
     <g id="line2d_5">
      <path clip-path="url(#p7ab55d09e1)" d="M 193.760331 320.4 
L 193.760331 43.2 
" style="fill:none;stroke:#b0b0b0;stroke-linecap:square;stroke-width:0.8;"/>
     </g>
     <g id="line2d_6">
      <g>
       <use style="stroke:#000000;stroke-width:0.8;" x="193.760331" xlink:href="#mc931d510e9" y="320.4"/>
      </g>
     </g>
     <g id="text_3">
      <!-- 0.4 -->
      <defs>
       <path d="M 37.796875 64.3125 
L 12.890625 25.390625 
L 37.796875 25.390625 
z
M 35.203125 72.90625 
L 47.609375 72.90625 
L 47.609375 25.390625 
L 58.015625 25.390625 
L 58.015625 17.1875 
L 47.609375 17.1875 
L 47.609375 0 
L 37.796875 0 
L 37.796875 17.1875 
L 4.890625 17.1875 
L 4.890625 26.703125 
z
" id="DejaVuSans-34"/>
      </defs>
      <g transform="translate(185.808768 334.998438)scale(0.1 -0.1)">
       <use xlink:href="#DejaVuSans-30"/>
       <use x="63.623047" xlink:href="#DejaVuSans-2e"/>
       <use x="95.410156" xlink:href="#DejaVuSans-34"/>
      </g>
     </g>
    </g>
    <g id="xtick_4">
     <g id="line2d_7">
      <path clip-path="url(#p7ab55d09e1)" d="M 239.876033 320.4 
L 239.876033 43.2 
" style="fill:none;stroke:#b0b0b0;stroke-linecap:square;stroke-width:0.8;"/>
     </g>
     <g id="line2d_8">
      <g>
       <use style="stroke:#000000;stroke-width:0.8;" x="239.876033" xlink:href="#mc931d510e9" y="320.4"/>
      </g>
     </g>
     <g id="text_4">
      <!-- 0.6 -->
      <defs>
       <path d="M 33.015625 40.375 
Q 26.375 40.375 22.484375 35.828125 
Q 18.609375 31.296875 18.609375 23.390625 
Q 18.609375 15.53125 22.484375 10.953125 
Q 26.375 6.390625 33.015625 6.390625 
Q 39.65625 6.390625 43.53125 10.953125 
Q 47.40625 15.53125 47.40625 23.390625 
Q 47.40625 31.296875 43.53125 35.828125 
Q 39.65625 40.375 33.015625 40.375 
M 52.59375 71.296875 
L 52.59375 62.3125 
Q 48.875 64.0625 45.09375 64.984375 
Q 41.3125 65.921875 37.59375 65.921875 
Q 27.828125 65.921875 22.671875 59.328125 
Q 17.53125 52.734375 16.796875 39.40625 
Q 19.671875 43.65625 24.015625 45.921875 
Q 28.375 48.1875 33.59375 48.1875 
Q 44.578125 48.1875 50.953125 41.515625 
Q 57.328125 34.859375 57.328125 23.390625 
Q 57.328125 12.15625 50.6875 5.359375 
Q 44.046875 -1.421875 33.015625 -1.421875 
Q 20.359375 -1.421875 13.671875 8.265625 
Q 6.984375 17.96875 6.984375 36.375 
Q 6.984375 53.65625 15.1875 63.9375 
Q 23.390625 74.21875 37.203125 74.21875 
Q 40.921875 74.21875 44.703125 73.484375 
Q 48.484375 72.75 52.59375 71.296875 
" id="DejaVuSans-36"/>
      </defs>
      <g transform="translate(231.924471 334.998438)scale(0.1 -0.1)">
       <use xlink:href="#DejaVuSans-30"/>
       <use x="63.623047" xlink:href="#DejaVuSans-2e"/>
       <use x="95.410156" xlink:href="#DejaVuSans-36"/>
      </g>
     </g>
    </g>
    <g id="xtick_5">
     <g id="line2d_9">
      <path clip-path="url(#p7ab55d09e1)" d="M 285.991736 320.4 
L 285.991736 43.2 
" style="fill:none;stroke:#b0b0b0;stroke-linecap:square;stroke-width:0.8;"/>
     </g>
     <g id="line2d_10">
      <g>
       <use style="stroke:#000000;stroke-width:0.8;" x="285.991736" xlink:href="#mc931d510e9" y="320.4"/>
      </g>
     </g>
     <g id="text_5">
      <!-- 0.8 -->
      <defs>
       <path d="M 31.78125 34.625 
Q 24.75 34.625 20.71875 30.859375 
Q 16.703125 27.09375 16.703125 20.515625 
Q 16.703125 13.921875 20.71875 10.15625 
Q 24.75 6.390625 31.78125 6.390625 
Q 38.8125 6.390625 42.859375 10.171875 
Q 46.921875 13.96875 46.921875 20.515625 
Q 46.921875 27.09375 42.890625 30.859375 
Q 38.875 34.625 31.78125 34.625 
M 21.921875 38.8125 
Q 15.578125 40.375 12.03125 44.71875 
Q 8.5 49.078125 8.5 55.328125 
Q 8.5 64.0625 14.71875 69.140625 
Q 20.953125 74.21875 31.78125 74.21875 
Q 42.671875 74.21875 48.875 69.140625 
Q 55.078125 64.0625 55.078125 55.328125 
Q 55.078125 49.078125 51.53125 44.71875 
Q 48 40.375 41.703125 38.8125 
Q 48.828125 37.15625 52.796875 32.3125 
Q 56.78125 27.484375 56.78125 20.515625 
Q 56.78125 9.90625 50.3125 4.234375 
Q 43.84375 -1.421875 31.78125 -1.421875 
Q 19.734375 -1.421875 13.25 4.234375 
Q 6.78125 9.90625 6.78125 20.515625 
Q 6.78125 27.484375 10.78125 32.3125 
Q 14.796875 37.15625 21.921875 38.8125 
M 18.3125 54.390625 
Q 18.3125 48.734375 21.84375 45.5625 
Q 25.390625 42.390625 31.78125 42.390625 
Q 38.140625 42.390625 41.71875 45.5625 
Q 45.3125 48.734375 45.3125 54.390625 
Q 45.3125 60.0625 41.71875 63.234375 
Q 38.140625 66.40625 31.78125 66.40625 
Q 25.390625 66.40625 21.84375 63.234375 
Q 18.3125 60.0625 18.3125 54.390625 
" id="DejaVuSans-38"/>
      </defs>
      <g transform="translate(278.040173 334.998438)scale(0.1 -0.1)">
       <use xlink:href="#DejaVuSans-30"/>
       <use x="63.623047" xlink:href="#DejaVuSans-2e"/>
       <use x="95.410156" xlink:href="#DejaVuSans-38"/>
      </g>
     </g>
    </g>
    <g id="xtick_6">
     <g id="line2d_11">
      <path clip-path="url(#p7ab55d09e1)" d="M 332.107438 320.4 
L 332.107438 43.2 
" style="fill:none;stroke:#b0b0b0;stroke-linecap:square;stroke-width:0.8;"/>
     </g>
     <g id="line2d_12">
      <g>
       <use style="stroke:#000000;stroke-width:0.8;" x="332.107438" xlink:href="#mc931d510e9" y="320.4"/>
      </g>
     </g>
     <g id="text_6">
      <!-- 1.0 -->
      <defs>
       <path d="M 12.40625 8.296875 
L 28.515625 8.296875 
L 28.515625 63.921875 
L 10.984375 60.40625 
L 10.984375 69.390625 
L 28.421875 72.90625 
L 38.28125 72.90625 
L 38.28125 8.296875 
L 54.390625 8.296875 
L 54.390625 0 
L 12.40625 0 
z
" id="DejaVuSans-31"/>
      </defs>
      <g transform="translate(324.155876 334.998438)scale(0.1 -0.1)">
       <use xlink:href="#DejaVuSans-31"/>
       <use x="63.623047" xlink:href="#DejaVuSans-2e"/>
       <use x="95.410156" xlink:href="#DejaVuSans-30"/>
      </g>
     </g>
    </g>
   </g>
   <g id="matplotlib.axis_2">
    <g id="ytick_1">
     <g id="line2d_13">
      <path clip-path="url(#p7ab55d09e1)" d="M 90 312.696503 
L 343.636364 312.696503 
" style="fill:none;stroke:#b0b0b0;stroke-linecap:square;stroke-width:0.8;"/>
     </g>
     <g id="line2d_14">
      <defs>
       <path d="M 0 0 
L -3.5 0 
" id="m9c57af1481" style="stroke:#000000;stroke-width:0.8;"/>
      </defs>
      <g>
       <use style="stroke:#000000;stroke-width:0.8;" x="90" xlink:href="#m9c57af1481" y="312.696503"/>
      </g>
     </g>
     <g id="text_7">
      <!-- −0.5 -->
      <defs>
       <path d="M 10.59375 35.5 
L 73.1875 35.5 
L 73.1875 27.203125 
L 10.59375 27.203125 
z
" id="DejaVuSans-2212"/>
       <path d="M 10.796875 72.90625 
L 49.515625 72.90625 
L 49.515625 64.59375 
L 19.828125 64.59375 
L 19.828125 46.734375 
Q 21.96875 47.46875 24.109375 47.828125 
Q 26.265625 48.1875 28.421875 48.1875 
Q 40.625 48.1875 47.75 41.5 
Q 54.890625 34.8125 54.890625 23.390625 
Q 54.890625 11.625 47.5625 5.09375 
Q 40.234375 -1.421875 26.90625 -1.421875 
Q 22.3125 -1.421875 17.546875 -0.640625 
Q 12.796875 0.140625 7.71875 1.703125 
L 7.71875 11.625 
Q 12.109375 9.234375 16.796875 8.0625 
Q 21.484375 6.890625 26.703125 6.890625 
Q 35.15625 6.890625 40.078125 11.328125 
Q 45.015625 15.765625 45.015625 23.390625 
Q 45.015625 31 40.078125 35.4375 
Q 35.15625 39.890625 26.703125 39.890625 
Q 22.75 39.890625 18.8125 39.015625 
Q 14.890625 38.140625 10.796875 36.28125 
z
" id="DejaVuSans-35"/>
      </defs>
      <g transform="translate(58.717187 316.495722)scale(0.1 -0.1)">
       <use xlink:href="#DejaVuSans-2212"/>
       <use x="83.789062" xlink:href="#DejaVuSans-30"/>
       <use x="147.412109" xlink:href="#DejaVuSans-2e"/>
       <use x="179.199219" xlink:href="#DejaVuSans-35"/>
      </g>
     </g>
    </g>
    <g id="ytick_2">
     <g id="line2d_15">
      <path clip-path="url(#p7ab55d09e1)" d="M 90 278.48833 
L 343.636364 278.48833 
" style="fill:none;stroke:#b0b0b0;stroke-linecap:square;stroke-width:0.8;"/>
     </g>
     <g id="line2d_16">
      <g>
       <use style="stroke:#000000;stroke-width:0.8;" x="90" xlink:href="#m9c57af1481" y="278.48833"/>
      </g>
     </g>
     <g id="text_8">
      <!-- 0.0 -->
      <g transform="translate(67.096875 282.287549)scale(0.1 -0.1)">
       <use xlink:href="#DejaVuSans-30"/>
       <use x="63.623047" xlink:href="#DejaVuSans-2e"/>
       <use x="95.410156" xlink:href="#DejaVuSans-30"/>
      </g>
     </g>
    </g>
    <g id="ytick_3">
     <g id="line2d_17">
      <path clip-path="url(#p7ab55d09e1)" d="M 90 244.280157 
L 343.636364 244.280157 
" style="fill:none;stroke:#b0b0b0;stroke-linecap:square;stroke-width:0.8;"/>
     </g>
     <g id="line2d_18">
      <g>
       <use style="stroke:#000000;stroke-width:0.8;" x="90" xlink:href="#m9c57af1481" y="244.280157"/>
      </g>
     </g>
     <g id="text_9">
      <!-- 0.5 -->
      <g transform="translate(67.096875 248.079376)scale(0.1 -0.1)">
       <use xlink:href="#DejaVuSans-30"/>
       <use x="63.623047" xlink:href="#DejaVuSans-2e"/>
       <use x="95.410156" xlink:href="#DejaVuSans-35"/>
      </g>
     </g>
    </g>
    <g id="ytick_4">
     <g id="line2d_19">
      <path clip-path="url(#p7ab55d09e1)" d="M 90 210.071984 
L 343.636364 210.071984 
" style="fill:none;stroke:#b0b0b0;stroke-linecap:square;stroke-width:0.8;"/>
     </g>
     <g id="line2d_20">
      <g>
       <use style="stroke:#000000;stroke-width:0.8;" x="90" xlink:href="#m9c57af1481" y="210.071984"/>
      </g>
     </g>
     <g id="text_10">
      <!-- 1.0 -->
      <g transform="translate(67.096875 213.871203)scale(0.1 -0.1)">
       <use xlink:href="#DejaVuSans-31"/>
       <use x="63.623047" xlink:href="#DejaVuSans-2e"/>
       <use x="95.410156" xlink:href="#DejaVuSans-30"/>
      </g>
     </g>
    </g>
    <g id="ytick_5">
     <g id="line2d_21">
      <path clip-path="url(#p7ab55d09e1)" d="M 90 175.863811 
L 343.636364 175.863811 
" style="fill:none;stroke:#b0b0b0;stroke-linecap:square;stroke-width:0.8;"/>
     </g>
     <g id="line2d_22">
      <g>
       <use style="stroke:#000000;stroke-width:0.8;" x="90" xlink:href="#m9c57af1481" y="175.863811"/>
      </g>
     </g>
     <g id="text_11">
      <!-- 1.5 -->
      <g transform="translate(67.096875 179.663029)scale(0.1 -0.1)">
       <use xlink:href="#DejaVuSans-31"/>
       <use x="63.623047" xlink:href="#DejaVuSans-2e"/>
       <use x="95.410156" xlink:href="#DejaVuSans-35"/>
      </g>
     </g>
    </g>
    <g id="ytick_6">
     <g id="line2d_23">
      <path clip-path="url(#p7ab55d09e1)" d="M 90 141.655637 
L 343.636364 141.655637 
" style="fill:none;stroke:#b0b0b0;stroke-linecap:square;stroke-width:0.8;"/>
     </g>
     <g id="line2d_24">
      <g>
       <use style="stroke:#000000;stroke-width:0.8;" x="90" xlink:href="#m9c57af1481" y="141.655637"/>
      </g>
     </g>
     <g id="text_12">
      <!-- 2.0 -->
      <g transform="translate(67.096875 145.454856)scale(0.1 -0.1)">
       <use xlink:href="#DejaVuSans-32"/>
       <use x="63.623047" xlink:href="#DejaVuSans-2e"/>
       <use x="95.410156" xlink:href="#DejaVuSans-30"/>
      </g>
     </g>
    </g>
    <g id="ytick_7">
     <g id="line2d_25">
      <path clip-path="url(#p7ab55d09e1)" d="M 90 107.447464 
L 343.636364 107.447464 
" style="fill:none;stroke:#b0b0b0;stroke-linecap:square;stroke-width:0.8;"/>
     </g>
     <g id="line2d_26">
      <g>
       <use style="stroke:#000000;stroke-width:0.8;" x="90" xlink:href="#m9c57af1481" y="107.447464"/>
      </g>
     </g>
     <g id="text_13">
      <!-- 2.5 -->
      <g transform="translate(67.096875 111.246683)scale(0.1 -0.1)">
       <use xlink:href="#DejaVuSans-32"/>
       <use x="63.623047" xlink:href="#DejaVuSans-2e"/>
       <use x="95.410156" xlink:href="#DejaVuSans-35"/>
      </g>
     </g>
    </g>
    <g id="ytick_8">
     <g id="line2d_27">
      <path clip-path="url(#p7ab55d09e1)" d="M 90 73.239291 
L 343.636364 73.239291 
" style="fill:none;stroke:#b0b0b0;stroke-linecap:square;stroke-width:0.8;"/>
     </g>
     <g id="line2d_28">
      <g>
       <use style="stroke:#000000;stroke-width:0.8;" x="90" xlink:href="#m9c57af1481" y="73.239291"/>
      </g>
     </g>
     <g id="text_14">
      <!-- 3.0 -->
      <defs>
       <path d="M 40.578125 39.3125 
Q 47.65625 37.796875 51.625 33 
Q 55.609375 28.21875 55.609375 21.1875 
Q 55.609375 10.40625 48.1875 4.484375 
Q 40.765625 -1.421875 27.09375 -1.421875 
Q 22.515625 -1.421875 17.65625 -0.515625 
Q 12.796875 0.390625 7.625 2.203125 
L 7.625 11.71875 
Q 11.71875 9.328125 16.59375 8.109375 
Q 21.484375 6.890625 26.8125 6.890625 
Q 36.078125 6.890625 40.9375 10.546875 
Q 45.796875 14.203125 45.796875 21.1875 
Q 45.796875 27.640625 41.28125 31.265625 
Q 36.765625 34.90625 28.71875 34.90625 
L 20.21875 34.90625 
L 20.21875 43.015625 
L 29.109375 43.015625 
Q 36.375 43.015625 40.234375 45.921875 
Q 44.09375 48.828125 44.09375 54.296875 
Q 44.09375 59.90625 40.109375 62.90625 
Q 36.140625 65.921875 28.71875 65.921875 
Q 24.65625 65.921875 20.015625 65.03125 
Q 15.375 64.15625 9.8125 62.3125 
L 9.8125 71.09375 
Q 15.4375 72.65625 20.34375 73.4375 
Q 25.25 74.21875 29.59375 74.21875 
Q 40.828125 74.21875 47.359375 69.109375 
Q 53.90625 64.015625 53.90625 55.328125 
Q 53.90625 49.265625 50.4375 45.09375 
Q 46.96875 40.921875 40.578125 39.3125 
" id="DejaVuSans-33"/>
      </defs>
      <g transform="translate(67.096875 77.03851)scale(0.1 -0.1)">
       <use xlink:href="#DejaVuSans-33"/>
       <use x="63.623047" xlink:href="#DejaVuSans-2e"/>
       <use x="95.410156" xlink:href="#DejaVuSans-30"/>
      </g>
     </g>
    </g>
   </g>
   <g id="line2d_29">
    <defs>
     <path d="M 0 3 
C 0.795609 3 1.55874 2.683901 2.12132 2.12132 
C 2.683901 1.55874 3 0.795609 3 0 
C 3 -0.795609 2.683901 -1.55874 2.12132 -2.12132 
C 1.55874 -2.683901 0.795609 -3 0 -3 
C -0.795609 -3 -1.55874 -2.683901 -2.12132 -2.12132 
C -2.683901 -1.55874 -3 -0.795609 -3 0 
C -3 0.795609 -2.683901 1.55874 -2.12132 2.12132 
C -1.55874 2.683901 -0.795609 3 0 3 
z
" id="m284519c77f" style="stroke:#1f77b4;"/>
    </defs>
    <g clip-path="url(#p7ab55d09e1)">
     <use style="fill:#1f77b4;stroke:#1f77b4;" x="101.528926" xlink:href="#m284519c77f" y="294.784771"/>
     <use style="fill:#1f77b4;stroke:#1f77b4;" x="103.834711" xlink:href="#m284519c77f" y="258.862721"/>
     <use style="fill:#1f77b4;stroke:#1f77b4;" x="106.140496" xlink:href="#m284519c77f" y="282.680456"/>
     <use style="fill:#1f77b4;stroke:#1f77b4;" x="108.446281" xlink:href="#m284519c77f" y="288.154897"/>
     <use style="fill:#1f77b4;stroke:#1f77b4;" x="110.752066" xlink:href="#m284519c77f" y="266.005143"/>
     <use style="fill:#1f77b4;stroke:#1f77b4;" x="113.057851" xlink:href="#m284519c77f" y="266.18901"/>
     <use style="fill:#1f77b4;stroke:#1f77b4;" x="115.363636" xlink:href="#m284519c77f" y="286.424282"/>
     <use style="fill:#1f77b4;stroke:#1f77b4;" x="117.669422" xlink:href="#m284519c77f" y="277.220365"/>
     <use style="fill:#1f77b4;stroke:#1f77b4;" x="119.975206" xlink:href="#m284519c77f" y="307.8"/>
     <use style="fill:#1f77b4;stroke:#1f77b4;" x="122.280993" xlink:href="#m284519c77f" y="261.011098"/>
     <use style="fill:#1f77b4;stroke:#1f77b4;" x="124.586777" xlink:href="#m284519c77f" y="262.765903"/>
     <use style="fill:#1f77b4;stroke:#1f77b4;" x="126.892562" xlink:href="#m284519c77f" y="262.84301"/>
     <use style="fill:#1f77b4;stroke:#1f77b4;" x="129.198346" xlink:href="#m284519c77f" y="303.050621"/>
     <use style="fill:#1f77b4;stroke:#1f77b4;" x="131.504131" xlink:href="#m284519c77f" y="279.427178"/>
     <use style="fill:#1f77b4;stroke:#1f77b4;" x="133.809917" xlink:href="#m284519c77f" y="274.246593"/>
     <use style="fill:#1f77b4;stroke:#1f77b4;" x="136.115704" xlink:href="#m284519c77f" y="268.104335"/>
     <use style="fill:#1f77b4;stroke:#1f77b4;" x="138.421487" xlink:href="#m284519c77f" y="269.030238"/>
     <use style="fill:#1f77b4;stroke:#1f77b4;" x="140.727273" xlink:href="#m284519c77f" y="254.198907"/>
     <use style="fill:#1f77b4;stroke:#1f77b4;" x="143.03306" xlink:href="#m284519c77f" y="292.691119"/>
     <use style="fill:#1f77b4;stroke:#1f77b4;" x="145.338842" xlink:href="#m284519c77f" y="273.501994"/>
     <use style="fill:#1f77b4;stroke:#1f77b4;" x="147.644629" xlink:href="#m284519c77f" y="278.866683"/>
     <use style="fill:#1f77b4;stroke:#1f77b4;" x="149.950412" xlink:href="#m284519c77f" y="266.363003"/>
     <use style="fill:#1f77b4;stroke:#1f77b4;" x="152.256198" xlink:href="#m284519c77f" y="260.51256"/>
     <use style="fill:#1f77b4;stroke:#1f77b4;" x="154.561984" xlink:href="#m284519c77f" y="249.081577"/>
     <use style="fill:#1f77b4;stroke:#1f77b4;" x="156.867767" xlink:href="#m284519c77f" y="272.52963"/>
     <use style="fill:#1f77b4;stroke:#1f77b4;" x="159.173554" xlink:href="#m284519c77f" y="255.811023"/>
     <use style="fill:#1f77b4;stroke:#1f77b4;" x="161.479337" xlink:href="#m284519c77f" y="288.821511"/>
     <use style="fill:#1f77b4;stroke:#1f77b4;" x="163.785126" xlink:href="#m284519c77f" y="265.324996"/>
     <use style="fill:#1f77b4;stroke:#1f77b4;" x="166.090909" xlink:href="#m284519c77f" y="247.147165"/>
     <use style="fill:#1f77b4;stroke:#1f77b4;" x="168.396692" xlink:href="#m284519c77f" y="265.855944"/>
     <use style="fill:#1f77b4;stroke:#1f77b4;" x="170.702482" xlink:href="#m284519c77f" y="254.526812"/>
     <use style="fill:#1f77b4;stroke:#1f77b4;" x="173.008265" xlink:href="#m284519c77f" y="243.498652"/>
     <use style="fill:#1f77b4;stroke:#1f77b4;" x="175.314048" xlink:href="#m284519c77f" y="242.166999"/>
     <use style="fill:#1f77b4;stroke:#1f77b4;" x="177.619838" xlink:href="#m284519c77f" y="243.263289"/>
     <use style="fill:#1f77b4;stroke:#1f77b4;" x="179.925621" xlink:href="#m284519c77f" y="255.312304"/>
     <use style="fill:#1f77b4;stroke:#1f77b4;" x="182.231404" xlink:href="#m284519c77f" y="250.452155"/>
     <use style="fill:#1f77b4;stroke:#1f77b4;" x="184.537193" xlink:href="#m284519c77f" y="255.049472"/>
     <use style="fill:#1f77b4;stroke:#1f77b4;" x="186.842976" xlink:href="#m284519c77f" y="237.546689"/>
     <use style="fill:#1f77b4;stroke:#1f77b4;" x="189.148759" xlink:href="#m284519c77f" y="214.735373"/>
     <use style="fill:#1f77b4;stroke:#1f77b4;" x="191.454542" xlink:href="#m284519c77f" y="244.753862"/>
     <use style="fill:#1f77b4;stroke:#1f77b4;" x="193.760332" xlink:href="#m284519c77f" y="251.849354"/>
     <use style="fill:#1f77b4;stroke:#1f77b4;" x="196.066115" xlink:href="#m284519c77f" y="241.862999"/>
     <use style="fill:#1f77b4;stroke:#1f77b4;" x="198.371898" xlink:href="#m284519c77f" y="268.966047"/>
     <use style="fill:#1f77b4;stroke:#1f77b4;" x="200.677688" xlink:href="#m284519c77f" y="235.356"/>
     <use style="fill:#1f77b4;stroke:#1f77b4;" x="202.983471" xlink:href="#m284519c77f" y="249.152701"/>
     <use style="fill:#1f77b4;stroke:#1f77b4;" x="205.289253" xlink:href="#m284519c77f" y="236.835534"/>
     <use style="fill:#1f77b4;stroke:#1f77b4;" x="207.595043" xlink:href="#m284519c77f" y="232.757551"/>
     <use style="fill:#1f77b4;stroke:#1f77b4;" x="209.900826" xlink:href="#m284519c77f" y="220.672369"/>
     <use style="fill:#1f77b4;stroke:#1f77b4;" x="212.206609" xlink:href="#m284519c77f" y="226.02143"/>
     <use style="fill:#1f77b4;stroke:#1f77b4;" x="214.512399" xlink:href="#m284519c77f" y="215.374375"/>
     <use style="fill:#1f77b4;stroke:#1f77b4;" x="216.818182" xlink:href="#m284519c77f" y="244.537664"/>
     <use style="fill:#1f77b4;stroke:#1f77b4;" x="219.123965" xlink:href="#m284519c77f" y="241.766979"/>
     <use style="fill:#1f77b4;stroke:#1f77b4;" x="221.429748" xlink:href="#m284519c77f" y="221.750452"/>
     <use style="fill:#1f77b4;stroke:#1f77b4;" x="223.735531" xlink:href="#m284519c77f" y="225.614481"/>
     <use style="fill:#1f77b4;stroke:#1f77b4;" x="226.041327" xlink:href="#m284519c77f" y="217.791768"/>
     <use style="fill:#1f77b4;stroke:#1f77b4;" x="228.34711" xlink:href="#m284519c77f" y="208.62594"/>
     <use style="fill:#1f77b4;stroke:#1f77b4;" x="230.652893" xlink:href="#m284519c77f" y="211.570244"/>
     <use style="fill:#1f77b4;stroke:#1f77b4;" x="232.958676" xlink:href="#m284519c77f" y="200.914381"/>
     <use style="fill:#1f77b4;stroke:#1f77b4;" x="235.264459" xlink:href="#m284519c77f" y="185.0341"/>
     <use style="fill:#1f77b4;stroke:#1f77b4;" x="237.570242" xlink:href="#m284519c77f" y="216.999749"/>
     <use style="fill:#1f77b4;stroke:#1f77b4;" x="239.876039" xlink:href="#m284519c77f" y="202.073806"/>
     <use style="fill:#1f77b4;stroke:#1f77b4;" x="242.181821" xlink:href="#m284519c77f" y="194.296512"/>
     <use style="fill:#1f77b4;stroke:#1f77b4;" x="244.487604" xlink:href="#m284519c77f" y="198.719762"/>
     <use style="fill:#1f77b4;stroke:#1f77b4;" x="246.793387" xlink:href="#m284519c77f" y="179.034339"/>
     <use style="fill:#1f77b4;stroke:#1f77b4;" x="249.09917" xlink:href="#m284519c77f" y="223.29648"/>
     <use style="fill:#1f77b4;stroke:#1f77b4;" x="251.404953" xlink:href="#m284519c77f" y="159.892463"/>
     <use style="fill:#1f77b4;stroke:#1f77b4;" x="253.71075" xlink:href="#m284519c77f" y="200.497001"/>
     <use style="fill:#1f77b4;stroke:#1f77b4;" x="256.016533" xlink:href="#m284519c77f" y="179.104165"/>
     <use style="fill:#1f77b4;stroke:#1f77b4;" x="258.322316" xlink:href="#m284519c77f" y="169.458896"/>
     <use style="fill:#1f77b4;stroke:#1f77b4;" x="260.628099" xlink:href="#m284519c77f" y="186.904474"/>
     <use style="fill:#1f77b4;stroke:#1f77b4;" x="262.933882" xlink:href="#m284519c77f" y="166.847066"/>
     <use style="fill:#1f77b4;stroke:#1f77b4;" x="265.239664" xlink:href="#m284519c77f" y="160.502804"/>
     <use style="fill:#1f77b4;stroke:#1f77b4;" x="267.545461" xlink:href="#m284519c77f" y="159.902046"/>
     <use style="fill:#1f77b4;stroke:#1f77b4;" x="269.851244" xlink:href="#m284519c77f" y="176.622957"/>
     <use style="fill:#1f77b4;stroke:#1f77b4;" x="272.157027" xlink:href="#m284519c77f" y="133.315357"/>
     <use style="fill:#1f77b4;stroke:#1f77b4;" x="274.46281" xlink:href="#m284519c77f" y="154.481077"/>
     <use style="fill:#1f77b4;stroke:#1f77b4;" x="276.768593" xlink:href="#m284519c77f" y="170.113275"/>
     <use style="fill:#1f77b4;stroke:#1f77b4;" x="279.074376" xlink:href="#m284519c77f" y="142.405059"/>
     <use style="fill:#1f77b4;stroke:#1f77b4;" x="281.380159" xlink:href="#m284519c77f" y="147.180434"/>
     <use style="fill:#1f77b4;stroke:#1f77b4;" x="283.685955" xlink:href="#m284519c77f" y="137.992178"/>
     <use style="fill:#1f77b4;stroke:#1f77b4;" x="285.991738" xlink:href="#m284519c77f" y="189.689655"/>
     <use style="fill:#1f77b4;stroke:#1f77b4;" x="288.297521" xlink:href="#m284519c77f" y="119.391585"/>
     <use style="fill:#1f77b4;stroke:#1f77b4;" x="290.603304" xlink:href="#m284519c77f" y="131.876678"/>
     <use style="fill:#1f77b4;stroke:#1f77b4;" x="292.909087" xlink:href="#m284519c77f" y="128.167414"/>
     <use style="fill:#1f77b4;stroke:#1f77b4;" x="295.21487" xlink:href="#m284519c77f" y="132.714403"/>
     <use style="fill:#1f77b4;stroke:#1f77b4;" x="297.520667" xlink:href="#m284519c77f" y="112.696733"/>
     <use style="fill:#1f77b4;stroke:#1f77b4;" x="299.82645" xlink:href="#m284519c77f" y="106.044515"/>
     <use style="fill:#1f77b4;stroke:#1f77b4;" x="302.132233" xlink:href="#m284519c77f" y="112.097129"/>
     <use style="fill:#1f77b4;stroke:#1f77b4;" x="304.438015" xlink:href="#m284519c77f" y="92.994741"/>
     <use style="fill:#1f77b4;stroke:#1f77b4;" x="306.743798" xlink:href="#m284519c77f" y="107.144791"/>
     <use style="fill:#1f77b4;stroke:#1f77b4;" x="309.049581" xlink:href="#m284519c77f" y="109.862768"/>
     <use style="fill:#1f77b4;stroke:#1f77b4;" x="311.355378" xlink:href="#m284519c77f" y="114.563921"/>
     <use style="fill:#1f77b4;stroke:#1f77b4;" x="313.661161" xlink:href="#m284519c77f" y="104.567093"/>
     <use style="fill:#1f77b4;stroke:#1f77b4;" x="315.966944" xlink:href="#m284519c77f" y="81.416252"/>
     <use style="fill:#1f77b4;stroke:#1f77b4;" x="318.272727" xlink:href="#m284519c77f" y="89.691923"/>
     <use style="fill:#1f77b4;stroke:#1f77b4;" x="320.57851" xlink:href="#m284519c77f" y="89.225856"/>
     <use style="fill:#1f77b4;stroke:#1f77b4;" x="322.884293" xlink:href="#m284519c77f" y="73.174334"/>
     <use style="fill:#1f77b4;stroke:#1f77b4;" x="325.190089" xlink:href="#m284519c77f" y="90.882004"/>
     <use style="fill:#1f77b4;stroke:#1f77b4;" x="327.495872" xlink:href="#m284519c77f" y="79.067719"/>
     <use style="fill:#1f77b4;stroke:#1f77b4;" x="329.801655" xlink:href="#m284519c77f" y="63.84462"/>
     <use style="fill:#1f77b4;stroke:#1f77b4;" x="332.107438" xlink:href="#m284519c77f" y="55.8"/>
    </g>
   </g>
   <g id="line2d_30">
    <path clip-path="url(#p7ab55d09e1)" d="M 101.528926 278.48833 
L 103.834711 278.466853 
L 106.140496 278.402423 
L 108.446281 278.295038 
L 110.752066 278.1447 
L 113.057851 277.951409 
L 115.363636 277.715163 
L 117.669422 277.435964 
L 119.975206 277.113811 
L 122.280993 276.748704 
L 124.586777 276.340644 
L 126.892562 275.88963 
L 129.198346 275.395662 
L 131.504131 274.85874 
L 133.809917 274.278865 
L 136.115704 273.656036 
L 138.421487 272.990254 
L 140.727273 272.281517 
L 143.03306 271.529826 
L 145.338842 270.735183 
L 147.644629 269.897584 
L 149.950412 269.017034 
L 152.256198 268.093528 
L 154.561984 267.127069 
L 156.867767 266.117657 
L 159.173554 265.065291 
L 161.479337 263.969972 
L 163.785126 262.831695 
L 166.090909 261.650469 
L 168.396692 260.42629 
L 170.702482 259.159153 
L 173.008265 257.849064 
L 175.314048 256.496024 
L 177.619838 255.100024 
L 179.925621 253.661077 
L 182.231404 252.179174 
L 184.537193 250.654313 
L 186.842976 249.086503 
L 189.148759 247.475741 
L 191.454542 245.822025 
L 193.760332 244.125346 
L 196.066115 242.385725 
L 198.371898 240.603147 
L 200.677688 238.777608 
L 202.983471 236.909124 
L 205.289253 234.997687 
L 207.595043 233.043285 
L 209.900826 231.045942 
L 212.206609 229.005639 
L 214.512399 226.922378 
L 216.818182 224.796173 
L 219.123965 222.627011 
L 221.429748 220.414896 
L 223.735531 218.159828 
L 226.041327 215.861791 
L 228.34711 213.520817 
L 230.652893 211.136887 
L 232.958676 208.710003 
L 235.264459 206.240171 
L 237.570242 203.727374 
L 239.876039 201.17162 
L 242.181821 198.572917 
L 244.487604 195.931265 
L 246.793387 193.246665 
L 249.09917 190.519107 
L 251.404953 187.748593 
L 253.71075 184.935105 
L 256.016533 182.078685 
L 258.322316 179.179316 
L 260.628099 176.23699 
L 262.933882 173.251708 
L 265.239664 170.223468 
L 267.545461 167.152263 
L 269.851244 164.038118 
L 272.157027 160.881024 
L 274.46281 157.680981 
L 276.768593 154.437972 
L 279.074376 151.152016 
L 281.380159 147.82311 
L 283.685955 144.451223 
L 285.991738 141.036395 
L 288.297521 137.578635 
L 290.603304 134.07791 
L 292.909087 130.534236 
L 295.21487 126.947597 
L 297.520667 123.317993 
L 299.82645 119.64544 
L 302.132233 115.929954 
L 304.438015 112.171504 
L 306.743798 108.370105 
L 309.049581 104.525756 
L 311.355378 100.638411 
L 313.661161 96.708149 
L 315.966944 92.734938 
L 318.272727 88.718779 
L 320.57851 84.659654 
L 322.884293 80.557564 
L 325.190089 76.412509 
L 327.495872 72.224522 
L 329.801655 67.993586 
L 332.107438 63.719701 
" style="fill:none;stroke:#ff7f0e;stroke-linecap:square;stroke-width:3;"/>
   </g>
   <g id="patch_3">
    <path d="M 90 320.4 
L 90 43.2 
" style="fill:none;stroke:#000000;stroke-linecap:square;stroke-linejoin:miter;stroke-width:0.8;"/>
   </g>
   <g id="patch_4">
    <path d="M 343.636364 320.4 
L 343.636364 43.2 
" style="fill:none;stroke:#000000;stroke-linecap:square;stroke-linejoin:miter;stroke-width:0.8;"/>
   </g>
   <g id="patch_5">
    <path d="M 90 320.4 
L 343.636364 320.4 
" style="fill:none;stroke:#000000;stroke-linecap:square;stroke-linejoin:miter;stroke-width:0.8;"/>
   </g>
   <g id="patch_6">
    <path d="M 90 43.2 
L 343.636364 43.2 
" style="fill:none;stroke:#000000;stroke-linecap:square;stroke-linejoin:miter;stroke-width:0.8;"/>
   </g>
   <g id="legend_1">
    <g id="patch_7">
     <path d="M 97 80.55625 
L 159.389062 80.55625 
Q 161.389062 80.55625 161.389062 78.55625 
L 161.389062 50.2 
Q 161.389062 48.2 159.389062 48.2 
L 97 48.2 
Q 95 48.2 95 50.2 
L 95 78.55625 
Q 95 80.55625 97 80.55625 
z
" style="fill:#ffffff;opacity:0.8;stroke:#cccccc;stroke-linejoin:miter;"/>
    </g>
    <g id="line2d_31"/>
    <g id="line2d_32">
     <g>
      <use style="fill:#1f77b4;stroke:#1f77b4;" x="109" xlink:href="#m284519c77f" y="56.298437"/>
     </g>
    </g>
    <g id="text_15">
     <!-- Points -->
     <defs>
      <path d="M 19.671875 64.796875 
L 19.671875 37.40625 
L 32.078125 37.40625 
Q 38.96875 37.40625 42.71875 40.96875 
Q 46.484375 44.53125 46.484375 51.125 
Q 46.484375 57.671875 42.71875 61.234375 
Q 38.96875 64.796875 32.078125 64.796875 
z
M 9.8125 72.90625 
L 32.078125 72.90625 
Q 44.34375 72.90625 50.609375 67.359375 
Q 56.890625 61.8125 56.890625 51.125 
Q 56.890625 40.328125 50.609375 34.8125 
Q 44.34375 29.296875 32.078125 29.296875 
L 19.671875 29.296875 
L 19.671875 0 
L 9.8125 0 
z
" id="DejaVuSans-50"/>
      <path d="M 30.609375 48.390625 
Q 23.390625 48.390625 19.1875 42.75 
Q 14.984375 37.109375 14.984375 27.296875 
Q 14.984375 17.484375 19.15625 11.84375 
Q 23.34375 6.203125 30.609375 6.203125 
Q 37.796875 6.203125 41.984375 11.859375 
Q 46.1875 17.53125 46.1875 27.296875 
Q 46.1875 37.015625 41.984375 42.703125 
Q 37.796875 48.390625 30.609375 48.390625 
M 30.609375 56 
Q 42.328125 56 49.015625 48.375 
Q 55.71875 40.765625 55.71875 27.296875 
Q 55.71875 13.875 49.015625 6.21875 
Q 42.328125 -1.421875 30.609375 -1.421875 
Q 18.84375 -1.421875 12.171875 6.21875 
Q 5.515625 13.875 5.515625 27.296875 
Q 5.515625 40.765625 12.171875 48.375 
Q 18.84375 56 30.609375 56 
" id="DejaVuSans-6f"/>
      <path d="M 9.421875 54.6875 
L 18.40625 54.6875 
L 18.40625 0 
L 9.421875 0 
z
M 9.421875 75.984375 
L 18.40625 75.984375 
L 18.40625 64.59375 
L 9.421875 64.59375 
z
" id="DejaVuSans-69"/>
      <path d="M 54.890625 33.015625 
L 54.890625 0 
L 45.90625 0 
L 45.90625 32.71875 
Q 45.90625 40.484375 42.875 44.328125 
Q 39.84375 48.1875 33.796875 48.1875 
Q 26.515625 48.1875 22.3125 43.546875 
Q 18.109375 38.921875 18.109375 30.90625 
L 18.109375 0 
L 9.078125 0 
L 9.078125 54.6875 
L 18.109375 54.6875 
L 18.109375 46.1875 
Q 21.34375 51.125 25.703125 53.5625 
Q 30.078125 56 35.796875 56 
Q 45.21875 56 50.046875 50.171875 
Q 54.890625 44.34375 54.890625 33.015625 
" id="DejaVuSans-6e"/>
      <path d="M 18.3125 70.21875 
L 18.3125 54.6875 
L 36.8125 54.6875 
L 36.8125 47.703125 
L 18.3125 47.703125 
L 18.3125 18.015625 
Q 18.3125 11.328125 20.140625 9.421875 
Q 21.96875 7.515625 27.59375 7.515625 
L 36.8125 7.515625 
L 36.8125 0 
L 27.59375 0 
Q 17.1875 0 13.234375 3.875 
Q 9.28125 7.765625 9.28125 18.015625 
L 9.28125 47.703125 
L 2.6875 47.703125 
L 2.6875 54.6875 
L 9.28125 54.6875 
L 9.28125 70.21875 
z
" id="DejaVuSans-74"/>
      <path d="M 44.28125 53.078125 
L 44.28125 44.578125 
Q 40.484375 46.53125 36.375 47.5 
Q 32.28125 48.484375 27.875 48.484375 
Q 21.1875 48.484375 17.84375 46.4375 
Q 14.5 44.390625 14.5 40.28125 
Q 14.5 37.15625 16.890625 35.375 
Q 19.28125 33.59375 26.515625 31.984375 
L 29.59375 31.296875 
Q 39.15625 29.25 43.1875 25.515625 
Q 47.21875 21.78125 47.21875 15.09375 
Q 47.21875 7.46875 41.1875 3.015625 
Q 35.15625 -1.421875 24.609375 -1.421875 
Q 20.21875 -1.421875 15.453125 -0.5625 
Q 10.6875 0.296875 5.421875 2 
L 5.421875 11.28125 
Q 10.40625 8.6875 15.234375 7.390625 
Q 20.0625 6.109375 24.8125 6.109375 
Q 31.15625 6.109375 34.5625 8.28125 
Q 37.984375 10.453125 37.984375 14.40625 
Q 37.984375 18.0625 35.515625 20.015625 
Q 33.0625 21.96875 24.703125 23.78125 
L 21.578125 24.515625 
Q 13.234375 26.265625 9.515625 29.90625 
Q 5.8125 33.546875 5.8125 39.890625 
Q 5.8125 47.609375 11.28125 51.796875 
Q 16.75 56 26.8125 56 
Q 31.78125 56 36.171875 55.265625 
Q 40.578125 54.546875 44.28125 53.078125 
" id="DejaVuSans-73"/>
     </defs>
     <g transform="translate(127 59.798437)scale(0.1 -0.1)">
      <use xlink:href="#DejaVuSans-50"/>
      <use x="60.255859" xlink:href="#DejaVuSans-6f"/>
      <use x="121.4375" xlink:href="#DejaVuSans-69"/>
      <use x="149.220703" xlink:href="#DejaVuSans-6e"/>
      <use x="212.599609" xlink:href="#DejaVuSans-74"/>
      <use x="251.808594" xlink:href="#DejaVuSans-73"/>
     </g>
    </g>
    <g id="line2d_33">
     <path d="M 99 70.976562 
L 119 70.976562 
" style="fill:none;stroke:#ff7f0e;stroke-linecap:square;stroke-width:3;"/>
    </g>
    <g id="line2d_34"/>
    <g id="text_16">
     <!-- Fit -->
     <defs>
      <path d="M 9.8125 72.90625 
L 51.703125 72.90625 
L 51.703125 64.59375 
L 19.671875 64.59375 
L 19.671875 43.109375 
L 48.578125 43.109375 
L 48.578125 34.8125 
L 19.671875 34.8125 
L 19.671875 0 
L 9.8125 0 
z
" id="DejaVuSans-46"/>
     </defs>
     <g transform="translate(127 74.476562)scale(0.1 -0.1)">
      <use xlink:href="#DejaVuSans-46"/>
      <use x="57.410156" xlink:href="#DejaVuSans-69"/>
      <use x="85.193359" xlink:href="#DejaVuSans-74"/>
     </g>
    </g>
   </g>
  </g>
  <g id="axes_2">
   <g id="patch_8">
    <path d="M 394.363636 320.4 
L 648 320.4 
L 648 43.2 
L 394.363636 43.2 
z
" style="fill:#ffffff;"/>
   </g>
   <g id="matplotlib.axis_3">
    <g id="xtick_7">
     <g id="line2d_35">
      <path clip-path="url(#p5bff684c16)" d="M 431.512397 320.4 
L 431.512397 43.2 
" style="fill:none;stroke:#b0b0b0;stroke-linecap:square;stroke-width:0.8;"/>
     </g>
     <g id="line2d_36">
      <g>
       <use style="stroke:#000000;stroke-width:0.8;" x="431.512397" xlink:href="#mc931d510e9" y="320.4"/>
      </g>
     </g>
     <g id="text_17">
      <!-- 2 -->
      <g transform="translate(428.331147 334.998438)scale(0.1 -0.1)">
       <use xlink:href="#DejaVuSans-32"/>
      </g>
     </g>
    </g>
    <g id="xtick_8">
     <g id="line2d_37">
      <path clip-path="url(#p5bff684c16)" d="M 482.752066 320.4 
L 482.752066 43.2 
" style="fill:none;stroke:#b0b0b0;stroke-linecap:square;stroke-width:0.8;"/>
     </g>
     <g id="line2d_38">
      <g>
       <use style="stroke:#000000;stroke-width:0.8;" x="482.752066" xlink:href="#mc931d510e9" y="320.4"/>
      </g>
     </g>
     <g id="text_18">
      <!-- 4 -->
      <g transform="translate(479.570816 334.998438)scale(0.1 -0.1)">
       <use xlink:href="#DejaVuSans-34"/>
      </g>
     </g>
    </g>
    <g id="xtick_9">
     <g id="line2d_39">
      <path clip-path="url(#p5bff684c16)" d="M 533.991736 320.4 
L 533.991736 43.2 
" style="fill:none;stroke:#b0b0b0;stroke-linecap:square;stroke-width:0.8;"/>
     </g>
     <g id="line2d_40">
      <g>
       <use style="stroke:#000000;stroke-width:0.8;" x="533.991736" xlink:href="#mc931d510e9" y="320.4"/>
      </g>
     </g>
     <g id="text_19">
      <!-- 6 -->
      <g transform="translate(530.810486 334.998438)scale(0.1 -0.1)">
       <use xlink:href="#DejaVuSans-36"/>
      </g>
     </g>
    </g>
    <g id="xtick_10">
     <g id="line2d_41">
      <path clip-path="url(#p5bff684c16)" d="M 585.231405 320.4 
L 585.231405 43.2 
" style="fill:none;stroke:#b0b0b0;stroke-linecap:square;stroke-width:0.8;"/>
     </g>
     <g id="line2d_42">
      <g>
       <use style="stroke:#000000;stroke-width:0.8;" x="585.231405" xlink:href="#mc931d510e9" y="320.4"/>
      </g>
     </g>
     <g id="text_20">
      <!-- 8 -->
      <g transform="translate(582.050155 334.998438)scale(0.1 -0.1)">
       <use xlink:href="#DejaVuSans-38"/>
      </g>
     </g>
    </g>
    <g id="xtick_11">
     <g id="line2d_43">
      <path clip-path="url(#p5bff684c16)" d="M 636.471074 320.4 
L 636.471074 43.2 
" style="fill:none;stroke:#b0b0b0;stroke-linecap:square;stroke-width:0.8;"/>
     </g>
     <g id="line2d_44">
      <g>
       <use style="stroke:#000000;stroke-width:0.8;" x="636.471074" xlink:href="#mc931d510e9" y="320.4"/>
      </g>
     </g>
     <g id="text_21">
      <!-- 10 -->
      <g transform="translate(630.108574 334.998438)scale(0.1 -0.1)">
       <use xlink:href="#DejaVuSans-31"/>
       <use x="63.623047" xlink:href="#DejaVuSans-30"/>
      </g>
     </g>
    </g>
    <g id="text_22">
     <!-- Gradient Descent Iteration -->
     <defs>
      <path d="M 59.515625 10.40625 
L 59.515625 29.984375 
L 43.40625 29.984375 
L 43.40625 38.09375 
L 69.28125 38.09375 
L 69.28125 6.78125 
Q 63.578125 2.734375 56.6875 0.65625 
Q 49.8125 -1.421875 42 -1.421875 
Q 24.90625 -1.421875 15.25 8.5625 
Q 5.609375 18.5625 5.609375 36.375 
Q 5.609375 54.25 15.25 64.234375 
Q 24.90625 74.21875 42 74.21875 
Q 49.125 74.21875 55.546875 72.453125 
Q 61.96875 70.703125 67.390625 67.28125 
L 67.390625 56.78125 
Q 61.921875 61.421875 55.765625 63.765625 
Q 49.609375 66.109375 42.828125 66.109375 
Q 29.4375 66.109375 22.71875 58.640625 
Q 16.015625 51.171875 16.015625 36.375 
Q 16.015625 21.625 22.71875 14.15625 
Q 29.4375 6.6875 42.828125 6.6875 
Q 48.046875 6.6875 52.140625 7.59375 
Q 56.25 8.5 59.515625 10.40625 
" id="DejaVuSans-47"/>
      <path d="M 41.109375 46.296875 
Q 39.59375 47.171875 37.8125 47.578125 
Q 36.03125 48 33.890625 48 
Q 26.265625 48 22.1875 43.046875 
Q 18.109375 38.09375 18.109375 28.8125 
L 18.109375 0 
L 9.078125 0 
L 9.078125 54.6875 
L 18.109375 54.6875 
L 18.109375 46.1875 
Q 20.953125 51.171875 25.484375 53.578125 
Q 30.03125 56 36.53125 56 
Q 37.453125 56 38.578125 55.875 
Q 39.703125 55.765625 41.0625 55.515625 
z
" id="DejaVuSans-72"/>
      <path d="M 34.28125 27.484375 
Q 23.390625 27.484375 19.1875 25 
Q 14.984375 22.515625 14.984375 16.5 
Q 14.984375 11.71875 18.140625 8.90625 
Q 21.296875 6.109375 26.703125 6.109375 
Q 34.1875 6.109375 38.703125 11.40625 
Q 43.21875 16.703125 43.21875 25.484375 
L 43.21875 27.484375 
z
M 52.203125 31.203125 
L 52.203125 0 
L 43.21875 0 
L 43.21875 8.296875 
Q 40.140625 3.328125 35.546875 0.953125 
Q 30.953125 -1.421875 24.3125 -1.421875 
Q 15.921875 -1.421875 10.953125 3.296875 
Q 6 8.015625 6 15.921875 
Q 6 25.140625 12.171875 29.828125 
Q 18.359375 34.515625 30.609375 34.515625 
L 43.21875 34.515625 
L 43.21875 35.40625 
Q 43.21875 41.609375 39.140625 45 
Q 35.0625 48.390625 27.6875 48.390625 
Q 23 48.390625 18.546875 47.265625 
Q 14.109375 46.140625 10.015625 43.890625 
L 10.015625 52.203125 
Q 14.9375 54.109375 19.578125 55.046875 
Q 24.21875 56 28.609375 56 
Q 40.484375 56 46.34375 49.84375 
Q 52.203125 43.703125 52.203125 31.203125 
" id="DejaVuSans-61"/>
      <path d="M 45.40625 46.390625 
L 45.40625 75.984375 
L 54.390625 75.984375 
L 54.390625 0 
L 45.40625 0 
L 45.40625 8.203125 
Q 42.578125 3.328125 38.25 0.953125 
Q 33.9375 -1.421875 27.875 -1.421875 
Q 17.96875 -1.421875 11.734375 6.484375 
Q 5.515625 14.40625 5.515625 27.296875 
Q 5.515625 40.1875 11.734375 48.09375 
Q 17.96875 56 27.875 56 
Q 33.9375 56 38.25 53.625 
Q 42.578125 51.265625 45.40625 46.390625 
M 14.796875 27.296875 
Q 14.796875 17.390625 18.875 11.75 
Q 22.953125 6.109375 30.078125 6.109375 
Q 37.203125 6.109375 41.296875 11.75 
Q 45.40625 17.390625 45.40625 27.296875 
Q 45.40625 37.203125 41.296875 42.84375 
Q 37.203125 48.484375 30.078125 48.484375 
Q 22.953125 48.484375 18.875 42.84375 
Q 14.796875 37.203125 14.796875 27.296875 
" id="DejaVuSans-64"/>
      <path d="M 56.203125 29.59375 
L 56.203125 25.203125 
L 14.890625 25.203125 
Q 15.484375 15.921875 20.484375 11.0625 
Q 25.484375 6.203125 34.421875 6.203125 
Q 39.59375 6.203125 44.453125 7.46875 
Q 49.3125 8.734375 54.109375 11.28125 
L 54.109375 2.78125 
Q 49.265625 0.734375 44.1875 -0.34375 
Q 39.109375 -1.421875 33.890625 -1.421875 
Q 20.796875 -1.421875 13.15625 6.1875 
Q 5.515625 13.8125 5.515625 26.8125 
Q 5.515625 40.234375 12.765625 48.109375 
Q 20.015625 56 32.328125 56 
Q 43.359375 56 49.78125 48.890625 
Q 56.203125 41.796875 56.203125 29.59375 
M 47.21875 32.234375 
Q 47.125 39.59375 43.09375 43.984375 
Q 39.0625 48.390625 32.421875 48.390625 
Q 24.90625 48.390625 20.390625 44.140625 
Q 15.875 39.890625 15.1875 32.171875 
z
" id="DejaVuSans-65"/>
      <path id="DejaVuSans-20"/>
      <path d="M 19.671875 64.796875 
L 19.671875 8.109375 
L 31.59375 8.109375 
Q 46.6875 8.109375 53.6875 14.9375 
Q 60.6875 21.78125 60.6875 36.53125 
Q 60.6875 51.171875 53.6875 57.984375 
Q 46.6875 64.796875 31.59375 64.796875 
z
M 9.8125 72.90625 
L 30.078125 72.90625 
Q 51.265625 72.90625 61.171875 64.09375 
Q 71.09375 55.28125 71.09375 36.53125 
Q 71.09375 17.671875 61.125 8.828125 
Q 51.171875 0 30.078125 0 
L 9.8125 0 
z
" id="DejaVuSans-44"/>
      <path d="M 48.78125 52.59375 
L 48.78125 44.1875 
Q 44.96875 46.296875 41.140625 47.34375 
Q 37.3125 48.390625 33.40625 48.390625 
Q 24.65625 48.390625 19.8125 42.84375 
Q 14.984375 37.3125 14.984375 27.296875 
Q 14.984375 17.28125 19.8125 11.734375 
Q 24.65625 6.203125 33.40625 6.203125 
Q 37.3125 6.203125 41.140625 7.25 
Q 44.96875 8.296875 48.78125 10.40625 
L 48.78125 2.09375 
Q 45.015625 0.34375 40.984375 -0.53125 
Q 36.96875 -1.421875 32.421875 -1.421875 
Q 20.0625 -1.421875 12.78125 6.34375 
Q 5.515625 14.109375 5.515625 27.296875 
Q 5.515625 40.671875 12.859375 48.328125 
Q 20.21875 56 33.015625 56 
Q 37.15625 56 41.109375 55.140625 
Q 45.0625 54.296875 48.78125 52.59375 
" id="DejaVuSans-63"/>
      <path d="M 9.8125 72.90625 
L 19.671875 72.90625 
L 19.671875 0 
L 9.8125 0 
z
" id="DejaVuSans-49"/>
     </defs>
     <g transform="translate(454.546662 348.676562)scale(0.1 -0.1)">
      <use xlink:href="#DejaVuSans-47"/>
      <use x="77.490234" xlink:href="#DejaVuSans-72"/>
      <use x="118.603516" xlink:href="#DejaVuSans-61"/>
      <use x="179.882812" xlink:href="#DejaVuSans-64"/>
      <use x="243.359375" xlink:href="#DejaVuSans-69"/>
      <use x="271.142578" xlink:href="#DejaVuSans-65"/>
      <use x="332.666016" xlink:href="#DejaVuSans-6e"/>
      <use x="396.044922" xlink:href="#DejaVuSans-74"/>
      <use x="435.253906" xlink:href="#DejaVuSans-20"/>
      <use x="467.041016" xlink:href="#DejaVuSans-44"/>
      <use x="544.042969" xlink:href="#DejaVuSans-65"/>
      <use x="605.566406" xlink:href="#DejaVuSans-73"/>
      <use x="657.666016" xlink:href="#DejaVuSans-63"/>
      <use x="712.646484" xlink:href="#DejaVuSans-65"/>
      <use x="774.169922" xlink:href="#DejaVuSans-6e"/>
      <use x="837.548828" xlink:href="#DejaVuSans-74"/>
      <use x="876.757812" xlink:href="#DejaVuSans-20"/>
      <use x="908.544922" xlink:href="#DejaVuSans-49"/>
      <use x="938.037109" xlink:href="#DejaVuSans-74"/>
      <use x="977.246094" xlink:href="#DejaVuSans-65"/>
      <use x="1038.769531" xlink:href="#DejaVuSans-72"/>
      <use x="1079.882812" xlink:href="#DejaVuSans-61"/>
      <use x="1141.162109" xlink:href="#DejaVuSans-74"/>
      <use x="1180.371094" xlink:href="#DejaVuSans-69"/>
      <use x="1208.154297" xlink:href="#DejaVuSans-6f"/>
      <use x="1269.335938" xlink:href="#DejaVuSans-6e"/>
     </g>
    </g>
   </g>
   <g id="matplotlib.axis_4">
    <g id="ytick_9">
     <g id="line2d_45">
      <path clip-path="url(#p5bff684c16)" d="M 394.363636 314.614813 
L 648 314.614813 
" style="fill:none;stroke:#b0b0b0;stroke-linecap:square;stroke-width:0.8;"/>
     </g>
     <g id="line2d_46">
      <g>
       <use style="stroke:#000000;stroke-width:0.8;" x="394.363636" xlink:href="#m9c57af1481" y="314.614813"/>
      </g>
     </g>
     <g id="text_23">
      <!-- 0 -->
      <g transform="translate(381.001136 318.414031)scale(0.1 -0.1)">
       <use xlink:href="#DejaVuSans-30"/>
      </g>
     </g>
    </g>
    <g id="ytick_10">
     <g id="line2d_47">
      <path clip-path="url(#p5bff684c16)" d="M 394.363636 280.423439 
L 648 280.423439 
" style="fill:none;stroke:#b0b0b0;stroke-linecap:square;stroke-width:0.8;"/>
     </g>
     <g id="line2d_48">
      <g>
       <use style="stroke:#000000;stroke-width:0.8;" x="394.363636" xlink:href="#m9c57af1481" y="280.423439"/>
      </g>
     </g>
     <g id="text_24">
      <!-- 20 -->
      <g transform="translate(374.638636 284.222658)scale(0.1 -0.1)">
       <use xlink:href="#DejaVuSans-32"/>
       <use x="63.623047" xlink:href="#DejaVuSans-30"/>
      </g>
     </g>
    </g>
    <g id="ytick_11">
     <g id="line2d_49">
      <path clip-path="url(#p5bff684c16)" d="M 394.363636 246.232066 
L 648 246.232066 
" style="fill:none;stroke:#b0b0b0;stroke-linecap:square;stroke-width:0.8;"/>
     </g>
     <g id="line2d_50">
      <g>
       <use style="stroke:#000000;stroke-width:0.8;" x="394.363636" xlink:href="#m9c57af1481" y="246.232066"/>
      </g>
     </g>
     <g id="text_25">
      <!-- 40 -->
      <g transform="translate(374.638636 250.031285)scale(0.1 -0.1)">
       <use xlink:href="#DejaVuSans-34"/>
       <use x="63.623047" xlink:href="#DejaVuSans-30"/>
      </g>
     </g>
    </g>
    <g id="ytick_12">
     <g id="line2d_51">
      <path clip-path="url(#p5bff684c16)" d="M 394.363636 212.040693 
L 648 212.040693 
" style="fill:none;stroke:#b0b0b0;stroke-linecap:square;stroke-width:0.8;"/>
     </g>
     <g id="line2d_52">
      <g>
       <use style="stroke:#000000;stroke-width:0.8;" x="394.363636" xlink:href="#m9c57af1481" y="212.040693"/>
      </g>
     </g>
     <g id="text_26">
      <!-- 60 -->
      <g transform="translate(374.638636 215.839911)scale(0.1 -0.1)">
       <use xlink:href="#DejaVuSans-36"/>
       <use x="63.623047" xlink:href="#DejaVuSans-30"/>
      </g>
     </g>
    </g>
    <g id="ytick_13">
     <g id="line2d_53">
      <path clip-path="url(#p5bff684c16)" d="M 394.363636 177.849319 
L 648 177.849319 
" style="fill:none;stroke:#b0b0b0;stroke-linecap:square;stroke-width:0.8;"/>
     </g>
     <g id="line2d_54">
      <g>
       <use style="stroke:#000000;stroke-width:0.8;" x="394.363636" xlink:href="#m9c57af1481" y="177.849319"/>
      </g>
     </g>
     <g id="text_27">
      <!-- 80 -->
      <g transform="translate(374.638636 181.648538)scale(0.1 -0.1)">
       <use xlink:href="#DejaVuSans-38"/>
       <use x="63.623047" xlink:href="#DejaVuSans-30"/>
      </g>
     </g>
    </g>
    <g id="ytick_14">
     <g id="line2d_55">
      <path clip-path="url(#p5bff684c16)" d="M 394.363636 143.657946 
L 648 143.657946 
" style="fill:none;stroke:#b0b0b0;stroke-linecap:square;stroke-width:0.8;"/>
     </g>
     <g id="line2d_56">
      <g>
       <use style="stroke:#000000;stroke-width:0.8;" x="394.363636" xlink:href="#m9c57af1481" y="143.657946"/>
      </g>
     </g>
     <g id="text_28">
      <!-- 100 -->
      <g transform="translate(368.276136 147.457165)scale(0.1 -0.1)">
       <use xlink:href="#DejaVuSans-31"/>
       <use x="63.623047" xlink:href="#DejaVuSans-30"/>
       <use x="127.246094" xlink:href="#DejaVuSans-30"/>
      </g>
     </g>
    </g>
    <g id="ytick_15">
     <g id="line2d_57">
      <path clip-path="url(#p5bff684c16)" d="M 394.363636 109.466573 
L 648 109.466573 
" style="fill:none;stroke:#b0b0b0;stroke-linecap:square;stroke-width:0.8;"/>
     </g>
     <g id="line2d_58">
      <g>
       <use style="stroke:#000000;stroke-width:0.8;" x="394.363636" xlink:href="#m9c57af1481" y="109.466573"/>
      </g>
     </g>
     <g id="text_29">
      <!-- 120 -->
      <g transform="translate(368.276136 113.265791)scale(0.1 -0.1)">
       <use xlink:href="#DejaVuSans-31"/>
       <use x="63.623047" xlink:href="#DejaVuSans-32"/>
       <use x="127.246094" xlink:href="#DejaVuSans-30"/>
      </g>
     </g>
    </g>
    <g id="ytick_16">
     <g id="line2d_59">
      <path clip-path="url(#p5bff684c16)" d="M 394.363636 75.275199 
L 648 75.275199 
" style="fill:none;stroke:#b0b0b0;stroke-linecap:square;stroke-width:0.8;"/>
     </g>
     <g id="line2d_60">
      <g>
       <use style="stroke:#000000;stroke-width:0.8;" x="394.363636" xlink:href="#m9c57af1481" y="75.275199"/>
      </g>
     </g>
     <g id="text_30">
      <!-- 140 -->
      <g transform="translate(368.276136 79.074418)scale(0.1 -0.1)">
       <use xlink:href="#DejaVuSans-31"/>
       <use x="63.623047" xlink:href="#DejaVuSans-34"/>
       <use x="127.246094" xlink:href="#DejaVuSans-30"/>
      </g>
     </g>
    </g>
    <g id="text_31">
     <!-- Sum of Squared Errors -->
     <defs>
      <path d="M 53.515625 70.515625 
L 53.515625 60.890625 
Q 47.90625 63.578125 42.921875 64.890625 
Q 37.9375 66.21875 33.296875 66.21875 
Q 25.25 66.21875 20.875 63.09375 
Q 16.5 59.96875 16.5 54.203125 
Q 16.5 49.359375 19.40625 46.890625 
Q 22.3125 44.4375 30.421875 42.921875 
L 36.375 41.703125 
Q 47.40625 39.59375 52.65625 34.296875 
Q 57.90625 29 57.90625 20.125 
Q 57.90625 9.515625 50.796875 4.046875 
Q 43.703125 -1.421875 29.984375 -1.421875 
Q 24.8125 -1.421875 18.96875 -0.25 
Q 13.140625 0.921875 6.890625 3.21875 
L 6.890625 13.375 
Q 12.890625 10.015625 18.65625 8.296875 
Q 24.421875 6.59375 29.984375 6.59375 
Q 38.421875 6.59375 43.015625 9.90625 
Q 47.609375 13.234375 47.609375 19.390625 
Q 47.609375 24.75 44.3125 27.78125 
Q 41.015625 30.8125 33.5 32.328125 
L 27.484375 33.5 
Q 16.453125 35.6875 11.515625 40.375 
Q 6.59375 45.0625 6.59375 53.421875 
Q 6.59375 63.09375 13.40625 68.65625 
Q 20.21875 74.21875 32.171875 74.21875 
Q 37.3125 74.21875 42.625 73.28125 
Q 47.953125 72.359375 53.515625 70.515625 
" id="DejaVuSans-53"/>
      <path d="M 8.5 21.578125 
L 8.5 54.6875 
L 17.484375 54.6875 
L 17.484375 21.921875 
Q 17.484375 14.15625 20.5 10.265625 
Q 23.53125 6.390625 29.59375 6.390625 
Q 36.859375 6.390625 41.078125 11.03125 
Q 45.3125 15.671875 45.3125 23.6875 
L 45.3125 54.6875 
L 54.296875 54.6875 
L 54.296875 0 
L 45.3125 0 
L 45.3125 8.40625 
Q 42.046875 3.421875 37.71875 1 
Q 33.40625 -1.421875 27.6875 -1.421875 
Q 18.265625 -1.421875 13.375 4.4375 
Q 8.5 10.296875 8.5 21.578125 
M 31.109375 56 
z
" id="DejaVuSans-75"/>
      <path d="M 52 44.1875 
Q 55.375 50.25 60.0625 53.125 
Q 64.75 56 71.09375 56 
Q 79.640625 56 84.28125 50.015625 
Q 88.921875 44.046875 88.921875 33.015625 
L 88.921875 0 
L 79.890625 0 
L 79.890625 32.71875 
Q 79.890625 40.578125 77.09375 44.375 
Q 74.3125 48.1875 68.609375 48.1875 
Q 61.625 48.1875 57.5625 43.546875 
Q 53.515625 38.921875 53.515625 30.90625 
L 53.515625 0 
L 44.484375 0 
L 44.484375 32.71875 
Q 44.484375 40.625 41.703125 44.40625 
Q 38.921875 48.1875 33.109375 48.1875 
Q 26.21875 48.1875 22.15625 43.53125 
Q 18.109375 38.875 18.109375 30.90625 
L 18.109375 0 
L 9.078125 0 
L 9.078125 54.6875 
L 18.109375 54.6875 
L 18.109375 46.1875 
Q 21.1875 51.21875 25.484375 53.609375 
Q 29.78125 56 35.6875 56 
Q 41.65625 56 45.828125 52.96875 
Q 50 49.953125 52 44.1875 
" id="DejaVuSans-6d"/>
      <path d="M 37.109375 75.984375 
L 37.109375 68.5 
L 28.515625 68.5 
Q 23.6875 68.5 21.796875 66.546875 
Q 19.921875 64.59375 19.921875 59.515625 
L 19.921875 54.6875 
L 34.71875 54.6875 
L 34.71875 47.703125 
L 19.921875 47.703125 
L 19.921875 0 
L 10.890625 0 
L 10.890625 47.703125 
L 2.296875 47.703125 
L 2.296875 54.6875 
L 10.890625 54.6875 
L 10.890625 58.5 
Q 10.890625 67.625 15.140625 71.796875 
Q 19.390625 75.984375 28.609375 75.984375 
z
" id="DejaVuSans-66"/>
      <path d="M 14.796875 27.296875 
Q 14.796875 17.390625 18.875 11.75 
Q 22.953125 6.109375 30.078125 6.109375 
Q 37.203125 6.109375 41.296875 11.75 
Q 45.40625 17.390625 45.40625 27.296875 
Q 45.40625 37.203125 41.296875 42.84375 
Q 37.203125 48.484375 30.078125 48.484375 
Q 22.953125 48.484375 18.875 42.84375 
Q 14.796875 37.203125 14.796875 27.296875 
M 45.40625 8.203125 
Q 42.578125 3.328125 38.25 0.953125 
Q 33.9375 -1.421875 27.875 -1.421875 
Q 17.96875 -1.421875 11.734375 6.484375 
Q 5.515625 14.40625 5.515625 27.296875 
Q 5.515625 40.1875 11.734375 48.09375 
Q 17.96875 56 27.875 56 
Q 33.9375 56 38.25 53.625 
Q 42.578125 51.265625 45.40625 46.390625 
L 45.40625 54.6875 
L 54.390625 54.6875 
L 54.390625 -20.796875 
L 45.40625 -20.796875 
z
" id="DejaVuSans-71"/>
      <path d="M 9.8125 72.90625 
L 55.90625 72.90625 
L 55.90625 64.59375 
L 19.671875 64.59375 
L 19.671875 43.015625 
L 54.390625 43.015625 
L 54.390625 34.71875 
L 19.671875 34.71875 
L 19.671875 8.296875 
L 56.78125 8.296875 
L 56.78125 0 
L 9.8125 0 
z
" id="DejaVuSans-45"/>
     </defs>
     <g transform="translate(362.196449 238.473437)rotate(-90)scale(0.1 -0.1)">
      <use xlink:href="#DejaVuSans-53"/>
      <use x="63.476562" xlink:href="#DejaVuSans-75"/>
      <use x="126.855469" xlink:href="#DejaVuSans-6d"/>
      <use x="224.267578" xlink:href="#DejaVuSans-20"/>
      <use x="256.054688" xlink:href="#DejaVuSans-6f"/>
      <use x="317.236328" xlink:href="#DejaVuSans-66"/>
      <use x="352.441406" xlink:href="#DejaVuSans-20"/>
      <use x="384.228516" xlink:href="#DejaVuSans-53"/>
      <use x="447.705078" xlink:href="#DejaVuSans-71"/>
      <use x="511.181641" xlink:href="#DejaVuSans-75"/>
      <use x="574.560547" xlink:href="#DejaVuSans-61"/>
      <use x="635.839844" xlink:href="#DejaVuSans-72"/>
      <use x="676.921875" xlink:href="#DejaVuSans-65"/>
      <use x="738.445312" xlink:href="#DejaVuSans-64"/>
      <use x="801.921875" xlink:href="#DejaVuSans-20"/>
      <use x="833.708984" xlink:href="#DejaVuSans-45"/>
      <use x="896.892578" xlink:href="#DejaVuSans-72"/>
      <use x="937.990234" xlink:href="#DejaVuSans-72"/>
      <use x="979.072266" xlink:href="#DejaVuSans-6f"/>
      <use x="1040.253906" xlink:href="#DejaVuSans-72"/>
      <use x="1081.367188" xlink:href="#DejaVuSans-73"/>
     </g>
    </g>
   </g>
   <g id="line2d_61">
    <path clip-path="url(#p5bff684c16)" d="M 405.892562 55.8 
L 431.512397 220.110929 
L 457.132231 277.294638 
L 482.752066 297.195789 
L 508.371901 304.121814 
L 533.991736 306.532219 
L 559.61157 307.371091 
L 585.231405 307.663037 
L 610.85124 307.76464 
L 636.471074 307.8 
" style="fill:none;stroke:#1f77b4;stroke-linecap:square;stroke-width:1.5;"/>
   </g>
   <g id="patch_9">
    <path d="M 394.363636 320.4 
L 394.363636 43.2 
" style="fill:none;stroke:#000000;stroke-linecap:square;stroke-linejoin:miter;stroke-width:0.8;"/>
   </g>
   <g id="patch_10">
    <path d="M 648 320.4 
L 648 43.2 
" style="fill:none;stroke:#000000;stroke-linecap:square;stroke-linejoin:miter;stroke-width:0.8;"/>
   </g>
   <g id="patch_11">
    <path d="M 394.363636 320.4 
L 648 320.4 
" style="fill:none;stroke:#000000;stroke-linecap:square;stroke-linejoin:miter;stroke-width:0.8;"/>
   </g>
   <g id="patch_12">
    <path d="M 394.363636 43.2 
L 648 43.2 
" style="fill:none;stroke:#000000;stroke-linecap:square;stroke-linejoin:miter;stroke-width:0.8;"/>
   </g>
   <g id="legend_2">
    <g id="patch_13">
     <path d="M 589.984375 65.878125 
L 641 65.878125 
Q 643 65.878125 643 63.878125 
L 643 50.2 
Q 643 48.2 641 48.2 
L 589.984375 48.2 
Q 587.984375 48.2 587.984375 50.2 
L 587.984375 63.878125 
Q 587.984375 65.878125 589.984375 65.878125 
z
" style="fill:#ffffff;opacity:0.8;stroke:#cccccc;stroke-linejoin:miter;"/>
    </g>
    <g id="line2d_62">
     <path d="M 591.984375 56.298437 
L 611.984375 56.298437 
" style="fill:none;stroke:#1f77b4;stroke-linecap:square;stroke-width:1.5;"/>
    </g>
    <g id="line2d_63"/>
    <g id="text_32">
     <!-- SSE -->
     <g transform="translate(619.984375 59.798437)scale(0.1 -0.1)">
      <use xlink:href="#DejaVuSans-53"/>
      <use x="63.476562" xlink:href="#DejaVuSans-53"/>
      <use x="126.953125" xlink:href="#DejaVuSans-45"/>
     </g>
    </g>
   </g>
  </g>
 </g>
 <defs>
  <clipPath id="p7ab55d09e1">
   <rect height="277.2" width="253.636364" x="90" y="43.2"/>
  </clipPath>
  <clipPath id="p5bff684c16">
   <rect height="277.2" width="253.636364" x="394.363636" y="43.2"/>
  </clipPath>
 </defs>
</svg>
