<?xml version="1.0" encoding="utf-8" standalone="no"?>
<!DOCTYPE svg PUBLIC "-//W3C//DTD SVG 1.1//EN"
  "http://www.w3.org/Graphics/SVG/1.1/DTD/svg11.dtd">
<!-- Created with matplotlib (http://matplotlib.org/) -->
<svg height="288pt" version="1.1" viewBox="0 0 720 288" width="720pt" xmlns="http://www.w3.org/2000/svg" xmlns:xlink="http://www.w3.org/1999/xlink">
 <defs>
  <style type="text/css">
*{stroke-linecap:butt;stroke-linejoin:round;}
  </style>
 </defs>
 <g id="figure_1">
  <g id="patch_1">
   <path d="M 0 288 
L 720 288 
L 720 0 
L 0 0 
z
" style="fill:#ffffff;"/>
  </g>
  <g id="axes_1">
   <g id="patch_2">
    <path d="M 90 256.32 
L 343.636364 256.32 
L 343.636364 34.56 
L 90 34.56 
z
" style="fill:#ffffff;"/>
   </g>
   <g id="matplotlib.axis_1">
    <g id="xtick_1">
     <g id="line2d_1">
      <defs>
       <path d="M 0 0 
L 0 3.5 
" id="m1ae0c35c7f" style="stroke:#000000;stroke-width:0.8;"/>
      </defs>
      <g>
       <use style="stroke:#000000;stroke-width:0.8;" x="101.528926" xlink:href="#m1ae0c35c7f" y="256.32"/>
      </g>
     </g>
     <g id="text_1">
      <!-- 0 -->
      <defs>
       <path d="M 31.78125 66.40625 
Q 24.171875 66.40625 20.328125 58.90625 
Q 16.5 51.421875 16.5 36.375 
Q 16.5 21.390625 20.328125 13.890625 
Q 24.171875 6.390625 31.78125 6.390625 
Q 39.453125 6.390625 43.28125 13.890625 
Q 47.125 21.390625 47.125 36.375 
Q 47.125 51.421875 43.28125 58.90625 
Q 39.453125 66.40625 31.78125 66.40625 
z
M 31.78125 74.21875 
Q 44.046875 74.21875 50.515625 64.515625 
Q 56.984375 54.828125 56.984375 36.375 
Q 56.984375 17.96875 50.515625 8.265625 
Q 44.046875 -1.421875 31.78125 -1.421875 
Q 19.53125 -1.421875 13.0625 8.265625 
Q 6.59375 17.96875 6.59375 36.375 
Q 6.59375 54.828125 13.0625 64.515625 
Q 19.53125 74.21875 31.78125 74.21875 
z
" id="DejaVuSans-30"/>
      </defs>
      <g transform="translate(98.347676 270.918437)scale(0.1 -0.1)">
       <use xlink:href="#DejaVuSans-30"/>
      </g>
     </g>
    </g>
    <g id="xtick_2">
     <g id="line2d_2">
      <g>
       <use style="stroke:#000000;stroke-width:0.8;" x="138.226636" xlink:href="#m1ae0c35c7f" y="256.32"/>
      </g>
     </g>
     <g id="text_2">
      <!-- 1 -->
      <defs>
       <path d="M 12.40625 8.296875 
L 28.515625 8.296875 
L 28.515625 63.921875 
L 10.984375 60.40625 
L 10.984375 69.390625 
L 28.421875 72.90625 
L 38.28125 72.90625 
L 38.28125 8.296875 
L 54.390625 8.296875 
L 54.390625 0 
L 12.40625 0 
z
" id="DejaVuSans-31"/>
      </defs>
      <g transform="translate(135.045386 270.918437)scale(0.1 -0.1)">
       <use xlink:href="#DejaVuSans-31"/>
      </g>
     </g>
    </g>
    <g id="xtick_3">
     <g id="line2d_3">
      <g>
       <use style="stroke:#000000;stroke-width:0.8;" x="174.924346" xlink:href="#m1ae0c35c7f" y="256.32"/>
      </g>
     </g>
     <g id="text_3">
      <!-- 2 -->
      <defs>
       <path d="M 19.1875 8.296875 
L 53.609375 8.296875 
L 53.609375 0 
L 7.328125 0 
L 7.328125 8.296875 
Q 12.9375 14.109375 22.625 23.890625 
Q 32.328125 33.6875 34.8125 36.53125 
Q 39.546875 41.84375 41.421875 45.53125 
Q 43.3125 49.21875 43.3125 52.78125 
Q 43.3125 58.59375 39.234375 62.25 
Q 35.15625 65.921875 28.609375 65.921875 
Q 23.96875 65.921875 18.8125 64.3125 
Q 13.671875 62.703125 7.8125 59.421875 
L 7.8125 69.390625 
Q 13.765625 71.78125 18.9375 73 
Q 24.125 74.21875 28.421875 74.21875 
Q 39.75 74.21875 46.484375 68.546875 
Q 53.21875 62.890625 53.21875 53.421875 
Q 53.21875 48.921875 51.53125 44.890625 
Q 49.859375 40.875 45.40625 35.40625 
Q 44.1875 33.984375 37.640625 27.21875 
Q 31.109375 20.453125 19.1875 8.296875 
z
" id="DejaVuSans-32"/>
      </defs>
      <g transform="translate(171.743096 270.918437)scale(0.1 -0.1)">
       <use xlink:href="#DejaVuSans-32"/>
      </g>
     </g>
    </g>
    <g id="xtick_4">
     <g id="line2d_4">
      <g>
       <use style="stroke:#000000;stroke-width:0.8;" x="211.622056" xlink:href="#m1ae0c35c7f" y="256.32"/>
      </g>
     </g>
     <g id="text_4">
      <!-- 3 -->
      <defs>
       <path d="M 40.578125 39.3125 
Q 47.65625 37.796875 51.625 33 
Q 55.609375 28.21875 55.609375 21.1875 
Q 55.609375 10.40625 48.1875 4.484375 
Q 40.765625 -1.421875 27.09375 -1.421875 
Q 22.515625 -1.421875 17.65625 -0.515625 
Q 12.796875 0.390625 7.625 2.203125 
L 7.625 11.71875 
Q 11.71875 9.328125 16.59375 8.109375 
Q 21.484375 6.890625 26.8125 6.890625 
Q 36.078125 6.890625 40.9375 10.546875 
Q 45.796875 14.203125 45.796875 21.1875 
Q 45.796875 27.640625 41.28125 31.265625 
Q 36.765625 34.90625 28.71875 34.90625 
L 20.21875 34.90625 
L 20.21875 43.015625 
L 29.109375 43.015625 
Q 36.375 43.015625 40.234375 45.921875 
Q 44.09375 48.828125 44.09375 54.296875 
Q 44.09375 59.90625 40.109375 62.90625 
Q 36.140625 65.921875 28.71875 65.921875 
Q 24.65625 65.921875 20.015625 65.03125 
Q 15.375 64.15625 9.8125 62.3125 
L 9.8125 71.09375 
Q 15.4375 72.65625 20.34375 73.4375 
Q 25.25 74.21875 29.59375 74.21875 
Q 40.828125 74.21875 47.359375 69.109375 
Q 53.90625 64.015625 53.90625 55.328125 
Q 53.90625 49.265625 50.4375 45.09375 
Q 46.96875 40.921875 40.578125 39.3125 
z
" id="DejaVuSans-33"/>
      </defs>
      <g transform="translate(208.440806 270.918437)scale(0.1 -0.1)">
       <use xlink:href="#DejaVuSans-33"/>
      </g>
     </g>
    </g>
    <g id="xtick_5">
     <g id="line2d_5">
      <g>
       <use style="stroke:#000000;stroke-width:0.8;" x="248.319766" xlink:href="#m1ae0c35c7f" y="256.32"/>
      </g>
     </g>
     <g id="text_5">
      <!-- 4 -->
      <defs>
       <path d="M 37.796875 64.3125 
L 12.890625 25.390625 
L 37.796875 25.390625 
z
M 35.203125 72.90625 
L 47.609375 72.90625 
L 47.609375 25.390625 
L 58.015625 25.390625 
L 58.015625 17.1875 
L 47.609375 17.1875 
L 47.609375 0 
L 37.796875 0 
L 37.796875 17.1875 
L 4.890625 17.1875 
L 4.890625 26.703125 
z
" id="DejaVuSans-34"/>
      </defs>
      <g transform="translate(245.138516 270.918437)scale(0.1 -0.1)">
       <use xlink:href="#DejaVuSans-34"/>
      </g>
     </g>
    </g>
    <g id="xtick_6">
     <g id="line2d_6">
      <g>
       <use style="stroke:#000000;stroke-width:0.8;" x="285.017476" xlink:href="#m1ae0c35c7f" y="256.32"/>
      </g>
     </g>
     <g id="text_6">
      <!-- 5 -->
      <defs>
       <path d="M 10.796875 72.90625 
L 49.515625 72.90625 
L 49.515625 64.59375 
L 19.828125 64.59375 
L 19.828125 46.734375 
Q 21.96875 47.46875 24.109375 47.828125 
Q 26.265625 48.1875 28.421875 48.1875 
Q 40.625 48.1875 47.75 41.5 
Q 54.890625 34.8125 54.890625 23.390625 
Q 54.890625 11.625 47.5625 5.09375 
Q 40.234375 -1.421875 26.90625 -1.421875 
Q 22.3125 -1.421875 17.546875 -0.640625 
Q 12.796875 0.140625 7.71875 1.703125 
L 7.71875 11.625 
Q 12.109375 9.234375 16.796875 8.0625 
Q 21.484375 6.890625 26.703125 6.890625 
Q 35.15625 6.890625 40.078125 11.328125 
Q 45.015625 15.765625 45.015625 23.390625 
Q 45.015625 31 40.078125 35.4375 
Q 35.15625 39.890625 26.703125 39.890625 
Q 22.75 39.890625 18.8125 39.015625 
Q 14.890625 38.140625 10.796875 36.28125 
z
" id="DejaVuSans-35"/>
      </defs>
      <g transform="translate(281.836226 270.918437)scale(0.1 -0.1)">
       <use xlink:href="#DejaVuSans-35"/>
      </g>
     </g>
    </g>
    <g id="xtick_7">
     <g id="line2d_7">
      <g>
       <use style="stroke:#000000;stroke-width:0.8;" x="321.715186" xlink:href="#m1ae0c35c7f" y="256.32"/>
      </g>
     </g>
     <g id="text_7">
      <!-- 6 -->
      <defs>
       <path d="M 33.015625 40.375 
Q 26.375 40.375 22.484375 35.828125 
Q 18.609375 31.296875 18.609375 23.390625 
Q 18.609375 15.53125 22.484375 10.953125 
Q 26.375 6.390625 33.015625 6.390625 
Q 39.65625 6.390625 43.53125 10.953125 
Q 47.40625 15.53125 47.40625 23.390625 
Q 47.40625 31.296875 43.53125 35.828125 
Q 39.65625 40.375 33.015625 40.375 
z
M 52.59375 71.296875 
L 52.59375 62.3125 
Q 48.875 64.0625 45.09375 64.984375 
Q 41.3125 65.921875 37.59375 65.921875 
Q 27.828125 65.921875 22.671875 59.328125 
Q 17.53125 52.734375 16.796875 39.40625 
Q 19.671875 43.65625 24.015625 45.921875 
Q 28.375 48.1875 33.59375 48.1875 
Q 44.578125 48.1875 50.953125 41.515625 
Q 57.328125 34.859375 57.328125 23.390625 
Q 57.328125 12.15625 50.6875 5.359375 
Q 44.046875 -1.421875 33.015625 -1.421875 
Q 20.359375 -1.421875 13.671875 8.265625 
Q 6.984375 17.96875 6.984375 36.375 
Q 6.984375 53.65625 15.1875 63.9375 
Q 23.390625 74.21875 37.203125 74.21875 
Q 40.921875 74.21875 44.703125 73.484375 
Q 48.484375 72.75 52.59375 71.296875 
z
" id="DejaVuSans-36"/>
      </defs>
      <g transform="translate(318.533936 270.918437)scale(0.1 -0.1)">
       <use xlink:href="#DejaVuSans-36"/>
      </g>
     </g>
    </g>
    <g id="text_8">
     <!-- $\theta$ -->
     <defs>
      <path d="M 45.515625 34.671875 
L 14.453125 34.671875 
Q 12.359375 20.0625 14.5 13.875 
Q 17.1875 6.25 24.46875 6.25 
Q 31.78125 6.25 37.359375 13.921875 
Q 42.234375 20.65625 45.515625 34.671875 
z
M 47.015625 42.96875 
Q 48.34375 56.84375 46.625 61.71875 
Q 43.953125 69.4375 36.765625 69.4375 
Q 29.296875 69.4375 23.828125 61.8125 
Q 19.53125 55.671875 16.15625 42.96875 
z
M 38.1875 76.765625 
Q 49.90625 76.765625 54.59375 66.40625 
Q 59.28125 56.109375 55.71875 37.84375 
Q 52.203125 19.625 43.453125 9.28125 
Q 34.765625 -1.125 23.046875 -1.125 
Q 11.28125 -1.125 6.640625 9.28125 
Q 2 19.625 5.515625 37.84375 
Q 9.078125 56.109375 17.71875 66.40625 
Q 26.421875 76.765625 38.1875 76.765625 
z
" id="DejaVuSans-Oblique-3b8"/>
     </defs>
     <g transform="translate(213.718182 284.596563)scale(0.1 -0.1)">
      <use transform="translate(0 0.234375)" xlink:href="#DejaVuSans-Oblique-3b8"/>
     </g>
    </g>
   </g>
   <g id="matplotlib.axis_2">
    <g id="ytick_1">
     <g id="line2d_8">
      <defs>
       <path d="M 0 0 
L -3.5 0 
" id="m0ae9a52387" style="stroke:#000000;stroke-width:0.8;"/>
      </defs>
      <g>
       <use style="stroke:#000000;stroke-width:0.8;" x="90" xlink:href="#m0ae9a52387" y="246.24"/>
      </g>
     </g>
     <g id="text_9">
      <!-- 0.0 -->
      <defs>
       <path d="M 10.6875 12.40625 
L 21 12.40625 
L 21 0 
L 10.6875 0 
z
" id="DejaVuSans-2e"/>
      </defs>
      <g transform="translate(67.096875 250.039219)scale(0.1 -0.1)">
       <use xlink:href="#DejaVuSans-30"/>
       <use x="63.623047" xlink:href="#DejaVuSans-2e"/>
       <use x="95.410156" xlink:href="#DejaVuSans-30"/>
      </g>
     </g>
    </g>
    <g id="ytick_2">
     <g id="line2d_9">
      <g>
       <use style="stroke:#000000;stroke-width:0.8;" x="90" xlink:href="#m0ae9a52387" y="214.154363"/>
      </g>
     </g>
     <g id="text_10">
      <!-- 0.5 -->
      <g transform="translate(67.096875 217.953582)scale(0.1 -0.1)">
       <use xlink:href="#DejaVuSans-30"/>
       <use x="63.623047" xlink:href="#DejaVuSans-2e"/>
       <use x="95.410156" xlink:href="#DejaVuSans-35"/>
      </g>
     </g>
    </g>
    <g id="ytick_3">
     <g id="line2d_10">
      <g>
       <use style="stroke:#000000;stroke-width:0.8;" x="90" xlink:href="#m0ae9a52387" y="182.068727"/>
      </g>
     </g>
     <g id="text_11">
      <!-- 1.0 -->
      <g transform="translate(67.096875 185.867946)scale(0.1 -0.1)">
       <use xlink:href="#DejaVuSans-31"/>
       <use x="63.623047" xlink:href="#DejaVuSans-2e"/>
       <use x="95.410156" xlink:href="#DejaVuSans-30"/>
      </g>
     </g>
    </g>
    <g id="ytick_4">
     <g id="line2d_11">
      <g>
       <use style="stroke:#000000;stroke-width:0.8;" x="90" xlink:href="#m0ae9a52387" y="149.98309"/>
      </g>
     </g>
     <g id="text_12">
      <!-- 1.5 -->
      <g transform="translate(67.096875 153.782309)scale(0.1 -0.1)">
       <use xlink:href="#DejaVuSans-31"/>
       <use x="63.623047" xlink:href="#DejaVuSans-2e"/>
       <use x="95.410156" xlink:href="#DejaVuSans-35"/>
      </g>
     </g>
    </g>
    <g id="ytick_5">
     <g id="line2d_12">
      <g>
       <use style="stroke:#000000;stroke-width:0.8;" x="90" xlink:href="#m0ae9a52387" y="117.897454"/>
      </g>
     </g>
     <g id="text_13">
      <!-- 2.0 -->
      <g transform="translate(67.096875 121.696673)scale(0.1 -0.1)">
       <use xlink:href="#DejaVuSans-32"/>
       <use x="63.623047" xlink:href="#DejaVuSans-2e"/>
       <use x="95.410156" xlink:href="#DejaVuSans-30"/>
      </g>
     </g>
    </g>
    <g id="ytick_6">
     <g id="line2d_13">
      <g>
       <use style="stroke:#000000;stroke-width:0.8;" x="90" xlink:href="#m0ae9a52387" y="85.811817"/>
      </g>
     </g>
     <g id="text_14">
      <!-- 2.5 -->
      <g transform="translate(67.096875 89.611036)scale(0.1 -0.1)">
       <use xlink:href="#DejaVuSans-32"/>
       <use x="63.623047" xlink:href="#DejaVuSans-2e"/>
       <use x="95.410156" xlink:href="#DejaVuSans-35"/>
      </g>
     </g>
    </g>
    <g id="ytick_7">
     <g id="line2d_14">
      <g>
       <use style="stroke:#000000;stroke-width:0.8;" x="90" xlink:href="#m0ae9a52387" y="53.726181"/>
      </g>
     </g>
     <g id="text_15">
      <!-- 3.0 -->
      <g transform="translate(67.096875 57.5254)scale(0.1 -0.1)">
       <use xlink:href="#DejaVuSans-33"/>
       <use x="63.623047" xlink:href="#DejaVuSans-2e"/>
       <use x="95.410156" xlink:href="#DejaVuSans-30"/>
      </g>
     </g>
    </g>
    <g id="text_16">
     <!-- $\phi$ -->
     <defs>
      <path d="M 46.734375 75.984375 
L 42.78125 55.8125 
Q 52.546875 55.8125 57.5625 48.34375 
Q 62.75 40.71875 60.15625 27.296875 
Q 57.515625 13.875 49.359375 6.25 
Q 41.453125 -1.21875 31.6875 -1.21875 
L 27.875 -20.796875 
L 18.953125 -20.796875 
L 22.75 -1.21875 
Q 13.03125 -1.21875 7.953125 6.25 
Q 2.78125 13.875 5.421875 27.296875 
Q 8.015625 40.71875 16.15625 48.34375 
Q 24.125 55.8125 33.84375 55.8125 
L 37.796875 75.984375 
z
M 33.25 6.78125 
Q 38.765625 6.78125 43.5 11.8125 
Q 48.6875 17.4375 50.6875 27.296875 
Q 52.640625 37.0625 49.515625 42.78125 
Q 46.734375 47.796875 41.21875 47.796875 
z
M 24.3125 6.78125 
L 32.28125 47.796875 
Q 26.8125 47.796875 22.078125 42.78125 
Q 16.75 37.0625 14.890625 27.296875 
Q 13.03125 17.4375 16.0625 11.8125 
Q 18.796875 6.78125 24.3125 6.78125 
z
" id="DejaVuSans-Oblique-3d5"/>
     </defs>
     <g transform="translate(60.996875 148.74)rotate(-90)scale(0.1 -0.1)">
      <use transform="translate(0 0.015625)" xlink:href="#DejaVuSans-Oblique-3d5"/>
     </g>
    </g>
   </g>
   <g id="line2d_15">
    <defs>
     <path d="M 0 3 
C 0.795609 3 1.55874 2.683901 2.12132 2.12132 
C 2.683901 1.55874 3 0.795609 3 0 
C 3 -0.795609 2.683901 -1.55874 2.12132 -2.12132 
C 1.55874 -2.683901 0.795609 -3 0 -3 
C -0.795609 -3 -1.55874 -2.683901 -2.12132 -2.12132 
C -2.683901 -1.55874 -3 -0.795609 -3 0 
C -3 0.795609 -2.683901 1.55874 -2.12132 2.12132 
C -1.55874 2.683901 -0.795609 3 0 3 
z
" id="md559d9f14a" style="stroke:#1f77b4;"/>
    </defs>
    <g clip-path="url(#pb6a0979d6b)">
     <use style="fill:#1f77b4;stroke:#1f77b4;" x="101.528926" xlink:href="#md559d9f14a" y="246.24"/>
     <use style="fill:#1f77b4;stroke:#1f77b4;" x="113.664637" xlink:href="#md559d9f14a" y="246.24"/>
     <use style="fill:#1f77b4;stroke:#1f77b4;" x="125.800348" xlink:href="#md559d9f14a" y="246.24"/>
     <use style="fill:#1f77b4;stroke:#1f77b4;" x="137.936059" xlink:href="#md559d9f14a" y="246.24"/>
     <use style="fill:#1f77b4;stroke:#1f77b4;" x="150.07177" xlink:href="#md559d9f14a" y="246.24"/>
     <use style="fill:#1f77b4;stroke:#1f77b4;" x="162.207482" xlink:href="#md559d9f14a" y="246.24"/>
     <use style="fill:#1f77b4;stroke:#1f77b4;" x="174.343193" xlink:href="#md559d9f14a" y="246.24"/>
     <use style="fill:#1f77b4;stroke:#1f77b4;" x="186.478904" xlink:href="#md559d9f14a" y="246.24"/>
     <use style="fill:#1f77b4;stroke:#1f77b4;" x="198.614615" xlink:href="#md559d9f14a" y="246.24"/>
     <use style="fill:#1f77b4;stroke:#1f77b4;" x="210.750326" xlink:href="#md559d9f14a" y="246.24"/>
     <use style="fill:#1f77b4;stroke:#1f77b4;" x="222.886037" xlink:href="#md559d9f14a" y="246.24"/>
     <use style="fill:#1f77b4;stroke:#1f77b4;" x="235.021749" xlink:href="#md559d9f14a" y="246.24"/>
     <use style="fill:#1f77b4;stroke:#1f77b4;" x="247.15746" xlink:href="#md559d9f14a" y="246.24"/>
     <use style="fill:#1f77b4;stroke:#1f77b4;" x="259.293171" xlink:href="#md559d9f14a" y="246.24"/>
     <use style="fill:#1f77b4;stroke:#1f77b4;" x="271.428882" xlink:href="#md559d9f14a" y="246.24"/>
     <use style="fill:#1f77b4;stroke:#1f77b4;" x="283.564593" xlink:href="#md559d9f14a" y="246.24"/>
     <use style="fill:#1f77b4;stroke:#1f77b4;" x="295.700304" xlink:href="#md559d9f14a" y="246.24"/>
     <use style="fill:#1f77b4;stroke:#1f77b4;" x="307.836016" xlink:href="#md559d9f14a" y="246.24"/>
     <use style="fill:#1f77b4;stroke:#1f77b4;" x="319.971727" xlink:href="#md559d9f14a" y="246.24"/>
     <use style="fill:#1f77b4;stroke:#1f77b4;" x="332.107438" xlink:href="#md559d9f14a" y="246.24"/>
     <use style="fill:#1f77b4;stroke:#1f77b4;" x="101.528926" xlink:href="#md559d9f14a" y="223.84"/>
     <use style="fill:#1f77b4;stroke:#1f77b4;" x="113.664637" xlink:href="#md559d9f14a" y="223.84"/>
     <use style="fill:#1f77b4;stroke:#1f77b4;" x="125.800348" xlink:href="#md559d9f14a" y="223.84"/>
     <use style="fill:#1f77b4;stroke:#1f77b4;" x="137.936059" xlink:href="#md559d9f14a" y="223.84"/>
     <use style="fill:#1f77b4;stroke:#1f77b4;" x="150.07177" xlink:href="#md559d9f14a" y="223.84"/>
     <use style="fill:#1f77b4;stroke:#1f77b4;" x="162.207482" xlink:href="#md559d9f14a" y="223.84"/>
     <use style="fill:#1f77b4;stroke:#1f77b4;" x="174.343193" xlink:href="#md559d9f14a" y="223.84"/>
     <use style="fill:#1f77b4;stroke:#1f77b4;" x="186.478904" xlink:href="#md559d9f14a" y="223.84"/>
     <use style="fill:#1f77b4;stroke:#1f77b4;" x="198.614615" xlink:href="#md559d9f14a" y="223.84"/>
     <use style="fill:#1f77b4;stroke:#1f77b4;" x="210.750326" xlink:href="#md559d9f14a" y="223.84"/>
     <use style="fill:#1f77b4;stroke:#1f77b4;" x="222.886037" xlink:href="#md559d9f14a" y="223.84"/>
     <use style="fill:#1f77b4;stroke:#1f77b4;" x="235.021749" xlink:href="#md559d9f14a" y="223.84"/>
     <use style="fill:#1f77b4;stroke:#1f77b4;" x="247.15746" xlink:href="#md559d9f14a" y="223.84"/>
     <use style="fill:#1f77b4;stroke:#1f77b4;" x="259.293171" xlink:href="#md559d9f14a" y="223.84"/>
     <use style="fill:#1f77b4;stroke:#1f77b4;" x="271.428882" xlink:href="#md559d9f14a" y="223.84"/>
     <use style="fill:#1f77b4;stroke:#1f77b4;" x="283.564593" xlink:href="#md559d9f14a" y="223.84"/>
     <use style="fill:#1f77b4;stroke:#1f77b4;" x="295.700304" xlink:href="#md559d9f14a" y="223.84"/>
     <use style="fill:#1f77b4;stroke:#1f77b4;" x="307.836016" xlink:href="#md559d9f14a" y="223.84"/>
     <use style="fill:#1f77b4;stroke:#1f77b4;" x="319.971727" xlink:href="#md559d9f14a" y="223.84"/>
     <use style="fill:#1f77b4;stroke:#1f77b4;" x="332.107438" xlink:href="#md559d9f14a" y="223.84"/>
     <use style="fill:#1f77b4;stroke:#1f77b4;" x="101.528926" xlink:href="#md559d9f14a" y="201.44"/>
     <use style="fill:#1f77b4;stroke:#1f77b4;" x="113.664637" xlink:href="#md559d9f14a" y="201.44"/>
     <use style="fill:#1f77b4;stroke:#1f77b4;" x="125.800348" xlink:href="#md559d9f14a" y="201.44"/>
     <use style="fill:#1f77b4;stroke:#1f77b4;" x="137.936059" xlink:href="#md559d9f14a" y="201.44"/>
     <use style="fill:#1f77b4;stroke:#1f77b4;" x="150.07177" xlink:href="#md559d9f14a" y="201.44"/>
     <use style="fill:#1f77b4;stroke:#1f77b4;" x="162.207482" xlink:href="#md559d9f14a" y="201.44"/>
     <use style="fill:#1f77b4;stroke:#1f77b4;" x="174.343193" xlink:href="#md559d9f14a" y="201.44"/>
     <use style="fill:#1f77b4;stroke:#1f77b4;" x="186.478904" xlink:href="#md559d9f14a" y="201.44"/>
     <use style="fill:#1f77b4;stroke:#1f77b4;" x="198.614615" xlink:href="#md559d9f14a" y="201.44"/>
     <use style="fill:#1f77b4;stroke:#1f77b4;" x="210.750326" xlink:href="#md559d9f14a" y="201.44"/>
     <use style="fill:#1f77b4;stroke:#1f77b4;" x="222.886037" xlink:href="#md559d9f14a" y="201.44"/>
     <use style="fill:#1f77b4;stroke:#1f77b4;" x="235.021749" xlink:href="#md559d9f14a" y="201.44"/>
     <use style="fill:#1f77b4;stroke:#1f77b4;" x="247.15746" xlink:href="#md559d9f14a" y="201.44"/>
     <use style="fill:#1f77b4;stroke:#1f77b4;" x="259.293171" xlink:href="#md559d9f14a" y="201.44"/>
     <use style="fill:#1f77b4;stroke:#1f77b4;" x="271.428882" xlink:href="#md559d9f14a" y="201.44"/>
     <use style="fill:#1f77b4;stroke:#1f77b4;" x="283.564593" xlink:href="#md559d9f14a" y="201.44"/>
     <use style="fill:#1f77b4;stroke:#1f77b4;" x="295.700304" xlink:href="#md559d9f14a" y="201.44"/>
     <use style="fill:#1f77b4;stroke:#1f77b4;" x="307.836016" xlink:href="#md559d9f14a" y="201.44"/>
     <use style="fill:#1f77b4;stroke:#1f77b4;" x="319.971727" xlink:href="#md559d9f14a" y="201.44"/>
     <use style="fill:#1f77b4;stroke:#1f77b4;" x="332.107438" xlink:href="#md559d9f14a" y="201.44"/>
     <use style="fill:#1f77b4;stroke:#1f77b4;" x="101.528926" xlink:href="#md559d9f14a" y="179.04"/>
     <use style="fill:#1f77b4;stroke:#1f77b4;" x="113.664637" xlink:href="#md559d9f14a" y="179.04"/>
     <use style="fill:#1f77b4;stroke:#1f77b4;" x="125.800348" xlink:href="#md559d9f14a" y="179.04"/>
     <use style="fill:#1f77b4;stroke:#1f77b4;" x="137.936059" xlink:href="#md559d9f14a" y="179.04"/>
     <use style="fill:#1f77b4;stroke:#1f77b4;" x="150.07177" xlink:href="#md559d9f14a" y="179.04"/>
     <use style="fill:#1f77b4;stroke:#1f77b4;" x="162.207482" xlink:href="#md559d9f14a" y="179.04"/>
     <use style="fill:#1f77b4;stroke:#1f77b4;" x="174.343193" xlink:href="#md559d9f14a" y="179.04"/>
     <use style="fill:#1f77b4;stroke:#1f77b4;" x="186.478904" xlink:href="#md559d9f14a" y="179.04"/>
     <use style="fill:#1f77b4;stroke:#1f77b4;" x="198.614615" xlink:href="#md559d9f14a" y="179.04"/>
     <use style="fill:#1f77b4;stroke:#1f77b4;" x="210.750326" xlink:href="#md559d9f14a" y="179.04"/>
     <use style="fill:#1f77b4;stroke:#1f77b4;" x="222.886037" xlink:href="#md559d9f14a" y="179.04"/>
     <use style="fill:#1f77b4;stroke:#1f77b4;" x="235.021749" xlink:href="#md559d9f14a" y="179.04"/>
     <use style="fill:#1f77b4;stroke:#1f77b4;" x="247.15746" xlink:href="#md559d9f14a" y="179.04"/>
     <use style="fill:#1f77b4;stroke:#1f77b4;" x="259.293171" xlink:href="#md559d9f14a" y="179.04"/>
     <use style="fill:#1f77b4;stroke:#1f77b4;" x="271.428882" xlink:href="#md559d9f14a" y="179.04"/>
     <use style="fill:#1f77b4;stroke:#1f77b4;" x="283.564593" xlink:href="#md559d9f14a" y="179.04"/>
     <use style="fill:#1f77b4;stroke:#1f77b4;" x="295.700304" xlink:href="#md559d9f14a" y="179.04"/>
     <use style="fill:#1f77b4;stroke:#1f77b4;" x="307.836016" xlink:href="#md559d9f14a" y="179.04"/>
     <use style="fill:#1f77b4;stroke:#1f77b4;" x="319.971727" xlink:href="#md559d9f14a" y="179.04"/>
     <use style="fill:#1f77b4;stroke:#1f77b4;" x="332.107438" xlink:href="#md559d9f14a" y="179.04"/>
     <use style="fill:#1f77b4;stroke:#1f77b4;" x="101.528926" xlink:href="#md559d9f14a" y="156.64"/>
     <use style="fill:#1f77b4;stroke:#1f77b4;" x="113.664637" xlink:href="#md559d9f14a" y="156.64"/>
     <use style="fill:#1f77b4;stroke:#1f77b4;" x="125.800348" xlink:href="#md559d9f14a" y="156.64"/>
     <use style="fill:#1f77b4;stroke:#1f77b4;" x="137.936059" xlink:href="#md559d9f14a" y="156.64"/>
     <use style="fill:#1f77b4;stroke:#1f77b4;" x="150.07177" xlink:href="#md559d9f14a" y="156.64"/>
     <use style="fill:#1f77b4;stroke:#1f77b4;" x="162.207482" xlink:href="#md559d9f14a" y="156.64"/>
     <use style="fill:#1f77b4;stroke:#1f77b4;" x="174.343193" xlink:href="#md559d9f14a" y="156.64"/>
     <use style="fill:#1f77b4;stroke:#1f77b4;" x="186.478904" xlink:href="#md559d9f14a" y="156.64"/>
     <use style="fill:#1f77b4;stroke:#1f77b4;" x="198.614615" xlink:href="#md559d9f14a" y="156.64"/>
     <use style="fill:#1f77b4;stroke:#1f77b4;" x="210.750326" xlink:href="#md559d9f14a" y="156.64"/>
     <use style="fill:#1f77b4;stroke:#1f77b4;" x="222.886037" xlink:href="#md559d9f14a" y="156.64"/>
     <use style="fill:#1f77b4;stroke:#1f77b4;" x="235.021749" xlink:href="#md559d9f14a" y="156.64"/>
     <use style="fill:#1f77b4;stroke:#1f77b4;" x="247.15746" xlink:href="#md559d9f14a" y="156.64"/>
     <use style="fill:#1f77b4;stroke:#1f77b4;" x="259.293171" xlink:href="#md559d9f14a" y="156.64"/>
     <use style="fill:#1f77b4;stroke:#1f77b4;" x="271.428882" xlink:href="#md559d9f14a" y="156.64"/>
     <use style="fill:#1f77b4;stroke:#1f77b4;" x="283.564593" xlink:href="#md559d9f14a" y="156.64"/>
     <use style="fill:#1f77b4;stroke:#1f77b4;" x="295.700304" xlink:href="#md559d9f14a" y="156.64"/>
     <use style="fill:#1f77b4;stroke:#1f77b4;" x="307.836016" xlink:href="#md559d9f14a" y="156.64"/>
     <use style="fill:#1f77b4;stroke:#1f77b4;" x="319.971727" xlink:href="#md559d9f14a" y="156.64"/>
     <use style="fill:#1f77b4;stroke:#1f77b4;" x="332.107438" xlink:href="#md559d9f14a" y="156.64"/>
     <use style="fill:#1f77b4;stroke:#1f77b4;" x="101.528926" xlink:href="#md559d9f14a" y="134.24"/>
     <use style="fill:#1f77b4;stroke:#1f77b4;" x="113.664637" xlink:href="#md559d9f14a" y="134.24"/>
     <use style="fill:#1f77b4;stroke:#1f77b4;" x="125.800348" xlink:href="#md559d9f14a" y="134.24"/>
     <use style="fill:#1f77b4;stroke:#1f77b4;" x="137.936059" xlink:href="#md559d9f14a" y="134.24"/>
     <use style="fill:#1f77b4;stroke:#1f77b4;" x="150.07177" xlink:href="#md559d9f14a" y="134.24"/>
     <use style="fill:#1f77b4;stroke:#1f77b4;" x="162.207482" xlink:href="#md559d9f14a" y="134.24"/>
     <use style="fill:#1f77b4;stroke:#1f77b4;" x="174.343193" xlink:href="#md559d9f14a" y="134.24"/>
     <use style="fill:#1f77b4;stroke:#1f77b4;" x="186.478904" xlink:href="#md559d9f14a" y="134.24"/>
     <use style="fill:#1f77b4;stroke:#1f77b4;" x="198.614615" xlink:href="#md559d9f14a" y="134.24"/>
     <use style="fill:#1f77b4;stroke:#1f77b4;" x="210.750326" xlink:href="#md559d9f14a" y="134.24"/>
     <use style="fill:#1f77b4;stroke:#1f77b4;" x="222.886037" xlink:href="#md559d9f14a" y="134.24"/>
     <use style="fill:#1f77b4;stroke:#1f77b4;" x="235.021749" xlink:href="#md559d9f14a" y="134.24"/>
     <use style="fill:#1f77b4;stroke:#1f77b4;" x="247.15746" xlink:href="#md559d9f14a" y="134.24"/>
     <use style="fill:#1f77b4;stroke:#1f77b4;" x="259.293171" xlink:href="#md559d9f14a" y="134.24"/>
     <use style="fill:#1f77b4;stroke:#1f77b4;" x="271.428882" xlink:href="#md559d9f14a" y="134.24"/>
     <use style="fill:#1f77b4;stroke:#1f77b4;" x="283.564593" xlink:href="#md559d9f14a" y="134.24"/>
     <use style="fill:#1f77b4;stroke:#1f77b4;" x="295.700304" xlink:href="#md559d9f14a" y="134.24"/>
     <use style="fill:#1f77b4;stroke:#1f77b4;" x="307.836016" xlink:href="#md559d9f14a" y="134.24"/>
     <use style="fill:#1f77b4;stroke:#1f77b4;" x="319.971727" xlink:href="#md559d9f14a" y="134.24"/>
     <use style="fill:#1f77b4;stroke:#1f77b4;" x="332.107438" xlink:href="#md559d9f14a" y="134.24"/>
     <use style="fill:#1f77b4;stroke:#1f77b4;" x="101.528926" xlink:href="#md559d9f14a" y="111.84"/>
     <use style="fill:#1f77b4;stroke:#1f77b4;" x="113.664637" xlink:href="#md559d9f14a" y="111.84"/>
     <use style="fill:#1f77b4;stroke:#1f77b4;" x="125.800348" xlink:href="#md559d9f14a" y="111.84"/>
     <use style="fill:#1f77b4;stroke:#1f77b4;" x="137.936059" xlink:href="#md559d9f14a" y="111.84"/>
     <use style="fill:#1f77b4;stroke:#1f77b4;" x="150.07177" xlink:href="#md559d9f14a" y="111.84"/>
     <use style="fill:#1f77b4;stroke:#1f77b4;" x="162.207482" xlink:href="#md559d9f14a" y="111.84"/>
     <use style="fill:#1f77b4;stroke:#1f77b4;" x="174.343193" xlink:href="#md559d9f14a" y="111.84"/>
     <use style="fill:#1f77b4;stroke:#1f77b4;" x="186.478904" xlink:href="#md559d9f14a" y="111.84"/>
     <use style="fill:#1f77b4;stroke:#1f77b4;" x="198.614615" xlink:href="#md559d9f14a" y="111.84"/>
     <use style="fill:#1f77b4;stroke:#1f77b4;" x="210.750326" xlink:href="#md559d9f14a" y="111.84"/>
     <use style="fill:#1f77b4;stroke:#1f77b4;" x="222.886037" xlink:href="#md559d9f14a" y="111.84"/>
     <use style="fill:#1f77b4;stroke:#1f77b4;" x="235.021749" xlink:href="#md559d9f14a" y="111.84"/>
     <use style="fill:#1f77b4;stroke:#1f77b4;" x="247.15746" xlink:href="#md559d9f14a" y="111.84"/>
     <use style="fill:#1f77b4;stroke:#1f77b4;" x="259.293171" xlink:href="#md559d9f14a" y="111.84"/>
     <use style="fill:#1f77b4;stroke:#1f77b4;" x="271.428882" xlink:href="#md559d9f14a" y="111.84"/>
     <use style="fill:#1f77b4;stroke:#1f77b4;" x="283.564593" xlink:href="#md559d9f14a" y="111.84"/>
     <use style="fill:#1f77b4;stroke:#1f77b4;" x="295.700304" xlink:href="#md559d9f14a" y="111.84"/>
     <use style="fill:#1f77b4;stroke:#1f77b4;" x="307.836016" xlink:href="#md559d9f14a" y="111.84"/>
     <use style="fill:#1f77b4;stroke:#1f77b4;" x="319.971727" xlink:href="#md559d9f14a" y="111.84"/>
     <use style="fill:#1f77b4;stroke:#1f77b4;" x="332.107438" xlink:href="#md559d9f14a" y="111.84"/>
     <use style="fill:#1f77b4;stroke:#1f77b4;" x="101.528926" xlink:href="#md559d9f14a" y="89.44"/>
     <use style="fill:#1f77b4;stroke:#1f77b4;" x="113.664637" xlink:href="#md559d9f14a" y="89.44"/>
     <use style="fill:#1f77b4;stroke:#1f77b4;" x="125.800348" xlink:href="#md559d9f14a" y="89.44"/>
     <use style="fill:#1f77b4;stroke:#1f77b4;" x="137.936059" xlink:href="#md559d9f14a" y="89.44"/>
     <use style="fill:#1f77b4;stroke:#1f77b4;" x="150.07177" xlink:href="#md559d9f14a" y="89.44"/>
     <use style="fill:#1f77b4;stroke:#1f77b4;" x="162.207482" xlink:href="#md559d9f14a" y="89.44"/>
     <use style="fill:#1f77b4;stroke:#1f77b4;" x="174.343193" xlink:href="#md559d9f14a" y="89.44"/>
     <use style="fill:#1f77b4;stroke:#1f77b4;" x="186.478904" xlink:href="#md559d9f14a" y="89.44"/>
     <use style="fill:#1f77b4;stroke:#1f77b4;" x="198.614615" xlink:href="#md559d9f14a" y="89.44"/>
     <use style="fill:#1f77b4;stroke:#1f77b4;" x="210.750326" xlink:href="#md559d9f14a" y="89.44"/>
     <use style="fill:#1f77b4;stroke:#1f77b4;" x="222.886037" xlink:href="#md559d9f14a" y="89.44"/>
     <use style="fill:#1f77b4;stroke:#1f77b4;" x="235.021749" xlink:href="#md559d9f14a" y="89.44"/>
     <use style="fill:#1f77b4;stroke:#1f77b4;" x="247.15746" xlink:href="#md559d9f14a" y="89.44"/>
     <use style="fill:#1f77b4;stroke:#1f77b4;" x="259.293171" xlink:href="#md559d9f14a" y="89.44"/>
     <use style="fill:#1f77b4;stroke:#1f77b4;" x="271.428882" xlink:href="#md559d9f14a" y="89.44"/>
     <use style="fill:#1f77b4;stroke:#1f77b4;" x="283.564593" xlink:href="#md559d9f14a" y="89.44"/>
     <use style="fill:#1f77b4;stroke:#1f77b4;" x="295.700304" xlink:href="#md559d9f14a" y="89.44"/>
     <use style="fill:#1f77b4;stroke:#1f77b4;" x="307.836016" xlink:href="#md559d9f14a" y="89.44"/>
     <use style="fill:#1f77b4;stroke:#1f77b4;" x="319.971727" xlink:href="#md559d9f14a" y="89.44"/>
     <use style="fill:#1f77b4;stroke:#1f77b4;" x="332.107438" xlink:href="#md559d9f14a" y="89.44"/>
     <use style="fill:#1f77b4;stroke:#1f77b4;" x="101.528926" xlink:href="#md559d9f14a" y="67.04"/>
     <use style="fill:#1f77b4;stroke:#1f77b4;" x="113.664637" xlink:href="#md559d9f14a" y="67.04"/>
     <use style="fill:#1f77b4;stroke:#1f77b4;" x="125.800348" xlink:href="#md559d9f14a" y="67.04"/>
     <use style="fill:#1f77b4;stroke:#1f77b4;" x="137.936059" xlink:href="#md559d9f14a" y="67.04"/>
     <use style="fill:#1f77b4;stroke:#1f77b4;" x="150.07177" xlink:href="#md559d9f14a" y="67.04"/>
     <use style="fill:#1f77b4;stroke:#1f77b4;" x="162.207482" xlink:href="#md559d9f14a" y="67.04"/>
     <use style="fill:#1f77b4;stroke:#1f77b4;" x="174.343193" xlink:href="#md559d9f14a" y="67.04"/>
     <use style="fill:#1f77b4;stroke:#1f77b4;" x="186.478904" xlink:href="#md559d9f14a" y="67.04"/>
     <use style="fill:#1f77b4;stroke:#1f77b4;" x="198.614615" xlink:href="#md559d9f14a" y="67.04"/>
     <use style="fill:#1f77b4;stroke:#1f77b4;" x="210.750326" xlink:href="#md559d9f14a" y="67.04"/>
     <use style="fill:#1f77b4;stroke:#1f77b4;" x="222.886037" xlink:href="#md559d9f14a" y="67.04"/>
     <use style="fill:#1f77b4;stroke:#1f77b4;" x="235.021749" xlink:href="#md559d9f14a" y="67.04"/>
     <use style="fill:#1f77b4;stroke:#1f77b4;" x="247.15746" xlink:href="#md559d9f14a" y="67.04"/>
     <use style="fill:#1f77b4;stroke:#1f77b4;" x="259.293171" xlink:href="#md559d9f14a" y="67.04"/>
     <use style="fill:#1f77b4;stroke:#1f77b4;" x="271.428882" xlink:href="#md559d9f14a" y="67.04"/>
     <use style="fill:#1f77b4;stroke:#1f77b4;" x="283.564593" xlink:href="#md559d9f14a" y="67.04"/>
     <use style="fill:#1f77b4;stroke:#1f77b4;" x="295.700304" xlink:href="#md559d9f14a" y="67.04"/>
     <use style="fill:#1f77b4;stroke:#1f77b4;" x="307.836016" xlink:href="#md559d9f14a" y="67.04"/>
     <use style="fill:#1f77b4;stroke:#1f77b4;" x="319.971727" xlink:href="#md559d9f14a" y="67.04"/>
     <use style="fill:#1f77b4;stroke:#1f77b4;" x="332.107438" xlink:href="#md559d9f14a" y="67.04"/>
     <use style="fill:#1f77b4;stroke:#1f77b4;" x="101.528926" xlink:href="#md559d9f14a" y="44.64"/>
     <use style="fill:#1f77b4;stroke:#1f77b4;" x="113.664637" xlink:href="#md559d9f14a" y="44.64"/>
     <use style="fill:#1f77b4;stroke:#1f77b4;" x="125.800348" xlink:href="#md559d9f14a" y="44.64"/>
     <use style="fill:#1f77b4;stroke:#1f77b4;" x="137.936059" xlink:href="#md559d9f14a" y="44.64"/>
     <use style="fill:#1f77b4;stroke:#1f77b4;" x="150.07177" xlink:href="#md559d9f14a" y="44.64"/>
     <use style="fill:#1f77b4;stroke:#1f77b4;" x="162.207482" xlink:href="#md559d9f14a" y="44.64"/>
     <use style="fill:#1f77b4;stroke:#1f77b4;" x="174.343193" xlink:href="#md559d9f14a" y="44.64"/>
     <use style="fill:#1f77b4;stroke:#1f77b4;" x="186.478904" xlink:href="#md559d9f14a" y="44.64"/>
     <use style="fill:#1f77b4;stroke:#1f77b4;" x="198.614615" xlink:href="#md559d9f14a" y="44.64"/>
     <use style="fill:#1f77b4;stroke:#1f77b4;" x="210.750326" xlink:href="#md559d9f14a" y="44.64"/>
     <use style="fill:#1f77b4;stroke:#1f77b4;" x="222.886037" xlink:href="#md559d9f14a" y="44.64"/>
     <use style="fill:#1f77b4;stroke:#1f77b4;" x="235.021749" xlink:href="#md559d9f14a" y="44.64"/>
     <use style="fill:#1f77b4;stroke:#1f77b4;" x="247.15746" xlink:href="#md559d9f14a" y="44.64"/>
     <use style="fill:#1f77b4;stroke:#1f77b4;" x="259.293171" xlink:href="#md559d9f14a" y="44.64"/>
     <use style="fill:#1f77b4;stroke:#1f77b4;" x="271.428882" xlink:href="#md559d9f14a" y="44.64"/>
     <use style="fill:#1f77b4;stroke:#1f77b4;" x="283.564593" xlink:href="#md559d9f14a" y="44.64"/>
     <use style="fill:#1f77b4;stroke:#1f77b4;" x="295.700304" xlink:href="#md559d9f14a" y="44.64"/>
     <use style="fill:#1f77b4;stroke:#1f77b4;" x="307.836016" xlink:href="#md559d9f14a" y="44.64"/>
     <use style="fill:#1f77b4;stroke:#1f77b4;" x="319.971727" xlink:href="#md559d9f14a" y="44.64"/>
     <use style="fill:#1f77b4;stroke:#1f77b4;" x="332.107438" xlink:href="#md559d9f14a" y="44.64"/>
    </g>
   </g>
   <g id="patch_3">
    <path d="M 90 256.32 
L 90 34.56 
" style="fill:none;stroke:#000000;stroke-linecap:square;stroke-linejoin:miter;stroke-width:0.8;"/>
   </g>
   <g id="patch_4">
    <path d="M 343.636364 256.32 
L 343.636364 34.56 
" style="fill:none;stroke:#000000;stroke-linecap:square;stroke-linejoin:miter;stroke-width:0.8;"/>
   </g>
   <g id="patch_5">
    <path d="M 90 256.32 
L 343.636364 256.32 
" style="fill:none;stroke:#000000;stroke-linecap:square;stroke-linejoin:miter;stroke-width:0.8;"/>
   </g>
   <g id="patch_6">
    <path d="M 90 34.56 
L 343.636364 34.56 
" style="fill:none;stroke:#000000;stroke-linecap:square;stroke-linejoin:miter;stroke-width:0.8;"/>
   </g>
  </g>
  <g id="patch_7">
   <path d="M 394.363636 256.32 
L 648 256.32 
L 648 34.56 
L 394.363636 34.56 
z
" style="fill:#ffffff;"/>
  </g>
  <g id="pane3d_1">
   <g id="patch_8">
    <path d="M 427.987056 207.318855 
L 500.57911 152.948328 
L 499.370529 49.055174 
L 422.730992 97.905975 
" style="fill:#f2f2f2;opacity:0.5;stroke:#f2f2f2;stroke-linejoin:miter;"/>
   </g>
  </g>
  <g id="pane3d_2">
   <g id="patch_9">
    <path d="M 500.57911 152.948328 
L 618.171413 183.344961 
L 623.091334 76.318952 
L 499.370529 49.055174 
" style="fill:#e6e6e6;opacity:0.5;stroke:#e6e6e6;stroke-linejoin:miter;"/>
   </g>
  </g>
  <g id="pane3d_3">
   <g id="patch_10">
    <path d="M 427.987056 207.318855 
L 551.710048 242.720688 
L 618.171413 183.344961 
L 500.57911 152.948328 
" style="fill:#ececec;opacity:0.5;stroke:#ececec;stroke-linejoin:miter;"/>
   </g>
  </g>
  <g id="axis3d_1">
   <g id="line2d_16">
    <path d="M 427.987056 207.318855 
L 551.710048 242.720688 
" style="fill:none;stroke:#000000;stroke-linecap:square;stroke-width:0.8;"/>
   </g>
   <g id="Line3DCollection_1">
    <path d="M 434.01289 209.043075 
L 506.324654 154.433503 
L 505.402999 50.384521 
" style="fill:none;stroke:#b0b0b0;stroke-width:0.8;"/>
    <path d="M 460.766027 216.69816 
L 531.81069 161.021432 
L 532.17725 56.284638 
" style="fill:none;stroke:#b0b0b0;stroke-width:0.8;"/>
    <path d="M 488.064552 224.509301 
L 557.778178 167.733812 
L 559.483289 62.301943 
" style="fill:none;stroke:#b0b0b0;stroke-width:0.8;"/>
    <path d="M 515.925313 232.48132 
L 584.240891 174.574203 
L 587.337121 68.439962 
" style="fill:none;stroke:#b0b0b0;stroke-width:0.8;"/>
    <path d="M 544.365862 240.619238 
L 611.213133 181.546304 
L 615.755394 74.702365 
" style="fill:none;stroke:#b0b0b0;stroke-width:0.8;"/>
   </g>
   <g id="xtick_8">
    <g id="line2d_17">
     <path d="M 434.635868 208.572604 
L 432.764613 209.985769 
" style="fill:none;stroke:#000000;stroke-linecap:square;stroke-width:0.8;"/>
    </g>
    <g id="text_17">
     <!-- −1.0 -->
     <defs>
      <path d="M 10.59375 35.5 
L 73.1875 35.5 
L 73.1875 27.203125 
L 10.59375 27.203125 
z
" id="DejaVuSans-2212"/>
     </defs>
     <g transform="translate(415.05216 231.79689)scale(0.1 -0.1)">
      <use xlink:href="#DejaVuSans-2212"/>
      <use x="83.789062" xlink:href="#DejaVuSans-31"/>
      <use x="147.412109" xlink:href="#DejaVuSans-2e"/>
      <use x="179.199219" xlink:href="#DejaVuSans-30"/>
     </g>
    </g>
   </g>
   <g id="xtick_9">
    <g id="line2d_18">
     <path d="M 461.378529 216.218151 
L 459.538717 217.659986 
" style="fill:none;stroke:#000000;stroke-linecap:square;stroke-width:0.8;"/>
    </g>
    <g id="text_18">
     <!-- −0.5 -->
     <g transform="translate(441.80138 239.623882)scale(0.1 -0.1)">
      <use xlink:href="#DejaVuSans-2212"/>
      <use x="83.789062" xlink:href="#DejaVuSans-30"/>
      <use x="147.412109" xlink:href="#DejaVuSans-2e"/>
      <use x="179.199219" xlink:href="#DejaVuSans-35"/>
     </g>
    </g>
   </g>
   <g id="xtick_10">
    <g id="line2d_19">
     <path d="M 488.66602 224.01946 
L 486.859328 225.490848 
" style="fill:none;stroke:#000000;stroke-linecap:square;stroke-width:0.8;"/>
    </g>
    <g id="text_19">
     <!-- 0.0 -->
     <g transform="translate(473.28709 247.610827)scale(0.1 -0.1)">
      <use xlink:href="#DejaVuSans-30"/>
      <use x="63.623047" xlink:href="#DejaVuSans-2e"/>
      <use x="95.410156" xlink:href="#DejaVuSans-30"/>
     </g>
    </g>
   </g>
   <g id="xtick_11">
    <g id="line2d_20">
     <path d="M 516.515161 231.981341 
L 514.743352 233.4832 
" style="fill:none;stroke:#000000;stroke-linecap:square;stroke-width:0.8;"/>
    </g>
    <g id="text_20">
     <!-- 0.5 -->
     <g transform="translate(501.146535 255.762678)scale(0.1 -0.1)">
      <use xlink:href="#DejaVuSans-30"/>
      <use x="63.623047" xlink:href="#DejaVuSans-2e"/>
      <use x="95.410156" xlink:href="#DejaVuSans-35"/>
     </g>
    </g>
   </g>
   <g id="xtick_12">
    <g id="line2d_21">
     <path d="M 544.943473 240.108804 
L 543.208398 241.642089 
" style="fill:none;stroke:#000000;stroke-linecap:square;stroke-width:0.8;"/>
    </g>
    <g id="text_21">
     <!-- 1.0 -->
     <g transform="translate(529.587194 264.084597)scale(0.1 -0.1)">
      <use xlink:href="#DejaVuSans-31"/>
      <use x="63.623047" xlink:href="#DejaVuSans-2e"/>
      <use x="95.410156" xlink:href="#DejaVuSans-30"/>
     </g>
    </g>
   </g>
  </g>
  <g id="axis3d_2">
   <g id="line2d_22">
    <path d="M 618.171413 183.344961 
L 551.710048 242.720688 
" style="fill:none;stroke:#000000;stroke-linecap:square;stroke-width:0.8;"/>
   </g>
   <g id="Line3DCollection_2">
    <path d="M 427.301468 94.992708 
L 432.300307 204.088285 
L 555.671504 239.181574 
" style="fill:none;stroke:#b0b0b0;stroke-width:0.8;"/>
    <path d="M 445.239807 83.558633 
L 449.248459 191.394334 
L 571.222036 225.288929 
" style="fill:none;stroke:#b0b0b0;stroke-width:0.8;"/>
    <path d="M 462.552867 72.523117 
L 465.635192 179.120879 
L 586.234291 211.877174 
" style="fill:none;stroke:#b0b0b0;stroke-width:0.8;"/>
    <path d="M 479.272783 61.865677 
L 481.487945 167.247368 
L 600.735742 198.921765 
" style="fill:none;stroke:#b0b0b0;stroke-width:0.8;"/>
    <path d="M 495.429523 51.567211 
L 496.832403 155.754564 
L 614.752024 186.399799 
" style="fill:none;stroke:#b0b0b0;stroke-width:0.8;"/>
   </g>
   <g id="xtick_13">
    <g id="line2d_23">
     <path d="M 554.638965 238.887866 
L 557.73889 239.769648 
" style="fill:none;stroke:#000000;stroke-linecap:square;stroke-width:0.8;"/>
    </g>
    <g id="text_22">
     <!-- −1.0 -->
     <g transform="translate(555.3607 260.068481)scale(0.1 -0.1)">
      <use xlink:href="#DejaVuSans-2212"/>
      <use x="83.789062" xlink:href="#DejaVuSans-31"/>
      <use x="147.412109" xlink:href="#DejaVuSans-2e"/>
      <use x="179.199219" xlink:href="#DejaVuSans-30"/>
     </g>
    </g>
   </g>
   <g id="xtick_14">
    <g id="line2d_24">
     <path d="M 570.201987 225.005474 
L 573.264373 225.856464 
" style="fill:none;stroke:#000000;stroke-linecap:square;stroke-width:0.8;"/>
    </g>
    <g id="text_23">
     <!-- −0.5 -->
     <g transform="translate(570.692792 245.951077)scale(0.1 -0.1)">
      <use xlink:href="#DejaVuSans-2212"/>
      <use x="83.789062" xlink:href="#DejaVuSans-30"/>
      <use x="147.412109" xlink:href="#DejaVuSans-2e"/>
      <use x="179.199219" xlink:href="#DejaVuSans-35"/>
     </g>
    </g>
   </g>
   <g id="xtick_15">
    <g id="line2d_25">
     <path d="M 585.226494 211.603444 
L 588.25206 212.425227 
" style="fill:none;stroke:#000000;stroke-linecap:square;stroke-width:0.8;"/>
    </g>
    <g id="text_24">
     <!-- 0.0 -->
     <g transform="translate(589.684355 232.322027)scale(0.1 -0.1)">
      <use xlink:href="#DejaVuSans-30"/>
      <use x="63.623047" xlink:href="#DejaVuSans-2e"/>
      <use x="95.410156" xlink:href="#DejaVuSans-30"/>
     </g>
    </g>
   </g>
   <g id="xtick_16">
    <g id="line2d_26">
     <path d="M 599.739961 198.657267 
L 602.729418 199.451321 
" style="fill:none;stroke:#000000;stroke-linecap:square;stroke-width:0.8;"/>
    </g>
    <g id="text_25">
     <!-- 0.5 -->
     <g transform="translate(603.982753 219.156422)scale(0.1 -0.1)">
      <use xlink:href="#DejaVuSans-30"/>
      <use x="63.623047" xlink:href="#DejaVuSans-2e"/>
      <use x="95.410156" xlink:href="#DejaVuSans-35"/>
     </g>
    </g>
   </g>
   <g id="xtick_17">
    <g id="line2d_27">
     <path d="M 613.768026 186.144075 
L 616.722076 186.911781 
" style="fill:none;stroke:#000000;stroke-linecap:square;stroke-width:0.8;"/>
    </g>
    <g id="text_26">
     <!-- 1.0 -->
     <g transform="translate(617.803074 206.431018)scale(0.1 -0.1)">
      <use xlink:href="#DejaVuSans-31"/>
      <use x="63.623047" xlink:href="#DejaVuSans-2e"/>
      <use x="95.410156" xlink:href="#DejaVuSans-30"/>
     </g>
    </g>
   </g>
  </g>
  <g id="axis3d_3">
   <g id="line2d_28">
    <path d="M 618.171413 183.344961 
L 623.091334 76.318952 
" style="fill:none;stroke:#000000;stroke-linecap:square;stroke-width:0.8;"/>
   </g>
   <g id="Line3DCollection_3">
    <path d="M 618.264989 181.309342 
L 500.556074 150.968069 
L 427.887255 205.24135 
" style="fill:none;stroke:#b0b0b0;stroke-width:0.8;"/>
    <path d="M 618.830401 169.009604 
L 500.416924 139.00632 
L 427.284093 192.685628 
" style="fill:none;stroke:#b0b0b0;stroke-width:0.8;"/>
    <path d="M 619.402681 156.560453 
L 500.276154 126.905367 
L 426.673361 179.972329 
" style="fill:none;stroke:#b0b0b0;stroke-width:0.8;"/>
    <path d="M 619.981955 143.959151 
L 500.133737 114.662765 
L 426.054916 167.098465 
" style="fill:none;stroke:#b0b0b0;stroke-width:0.8;"/>
    <path d="M 620.568353 131.202891 
L 499.989643 102.276013 
L 425.428611 154.060977 
" style="fill:none;stroke:#b0b0b0;stroke-width:0.8;"/>
    <path d="M 621.162006 118.288796 
L 499.843842 89.742548 
L 424.794295 140.856725 
" style="fill:none;stroke:#b0b0b0;stroke-width:0.8;"/>
    <path d="M 621.76305 105.213921 
L 499.696304 77.05975 
L 424.151813 127.482489 
" style="fill:none;stroke:#b0b0b0;stroke-width:0.8;"/>
    <path d="M 622.371624 91.975242 
L 499.546998 64.224934 
L 423.501006 113.934964 
" style="fill:none;stroke:#b0b0b0;stroke-width:0.8;"/>
    <path d="M 622.98787 78.569663 
L 499.395891 51.235349 
L 422.841711 100.210762 
" style="fill:none;stroke:#b0b0b0;stroke-width:0.8;"/>
   </g>
   <g id="xtick_18">
    <g id="line2d_29">
     <path d="M 617.282877 181.056188 
L 620.231258 181.816178 
" style="fill:none;stroke:#000000;stroke-linecap:square;stroke-width:0.8;"/>
    </g>
    <g id="text_27">
     <!-- −1.00 -->
     <g transform="translate(620.015757 186.761514)scale(0.1 -0.1)">
      <use xlink:href="#DejaVuSans-2212"/>
      <use x="83.789062" xlink:href="#DejaVuSans-31"/>
      <use x="147.412109" xlink:href="#DejaVuSans-2e"/>
      <use x="179.199219" xlink:href="#DejaVuSans-30"/>
      <use x="242.822266" xlink:href="#DejaVuSans-30"/>
     </g>
    </g>
   </g>
   <g id="xtick_19">
    <g id="line2d_30">
     <path d="M 617.842164 168.759207 
L 620.808943 169.510921 
" style="fill:none;stroke:#000000;stroke-linecap:square;stroke-width:0.8;"/>
    </g>
    <g id="text_28">
     <!-- −0.75 -->
     <defs>
      <path d="M 8.203125 72.90625 
L 55.078125 72.90625 
L 55.078125 68.703125 
L 28.609375 0 
L 18.3125 0 
L 43.21875 64.59375 
L 8.203125 64.59375 
z
" id="DejaVuSans-37"/>
     </defs>
     <g transform="translate(620.682268 174.48519)scale(0.1 -0.1)">
      <use xlink:href="#DejaVuSans-2212"/>
      <use x="83.789062" xlink:href="#DejaVuSans-30"/>
      <use x="147.412109" xlink:href="#DejaVuSans-2e"/>
      <use x="179.199219" xlink:href="#DejaVuSans-37"/>
      <use x="242.822266" xlink:href="#DejaVuSans-35"/>
     </g>
    </g>
   </g>
   <g id="xtick_20">
    <g id="line2d_31">
     <path d="M 618.408243 156.3129 
L 621.39365 157.05608 
" style="fill:none;stroke:#000000;stroke-linecap:square;stroke-width:0.8;"/>
    </g>
    <g id="text_29">
     <!-- −0.50 -->
     <g transform="translate(621.356852 162.060181)scale(0.1 -0.1)">
      <use xlink:href="#DejaVuSans-2212"/>
      <use x="83.789062" xlink:href="#DejaVuSans-30"/>
      <use x="147.412109" xlink:href="#DejaVuSans-2e"/>
      <use x="179.199219" xlink:href="#DejaVuSans-35"/>
      <use x="242.822266" xlink:href="#DejaVuSans-30"/>
     </g>
    </g>
   </g>
   <g id="xtick_21">
    <g id="line2d_32">
     <path d="M 618.981238 143.71453 
L 621.985509 144.448911 
" style="fill:none;stroke:#000000;stroke-linecap:square;stroke-width:0.8;"/>
    </g>
    <g id="text_30">
     <!-- −0.25 -->
     <g transform="translate(622.039656 149.483769)scale(0.1 -0.1)">
      <use xlink:href="#DejaVuSans-2212"/>
      <use x="83.789062" xlink:href="#DejaVuSans-30"/>
      <use x="147.412109" xlink:href="#DejaVuSans-2e"/>
      <use x="179.199219" xlink:href="#DejaVuSans-32"/>
      <use x="242.822266" xlink:href="#DejaVuSans-35"/>
     </g>
    </g>
   </g>
   <g id="xtick_22">
    <g id="line2d_33">
     <path d="M 619.561277 130.961293 
L 622.58465 131.686601 
" style="fill:none;stroke:#000000;stroke-linecap:square;stroke-width:0.8;"/>
    </g>
    <g id="text_31">
     <!-- 0.00 -->
     <g transform="translate(626.920675 136.753172)scale(0.1 -0.1)">
      <use xlink:href="#DejaVuSans-30"/>
      <use x="63.623047" xlink:href="#DejaVuSans-2e"/>
      <use x="95.410156" xlink:href="#DejaVuSans-30"/>
      <use x="159.033203" xlink:href="#DejaVuSans-30"/>
     </g>
    </g>
   </g>
   <g id="xtick_23">
    <g id="line2d_34">
     <path d="M 620.14849 118.050315 
L 623.191211 118.76627 
" style="fill:none;stroke:#000000;stroke-linecap:square;stroke-width:0.8;"/>
    </g>
    <g id="text_32">
     <!-- 0.25 -->
     <g transform="translate(627.620376 123.865534)scale(0.1 -0.1)">
      <use xlink:href="#DejaVuSans-30"/>
      <use x="63.623047" xlink:href="#DejaVuSans-2e"/>
      <use x="95.410156" xlink:href="#DejaVuSans-32"/>
      <use x="159.033203" xlink:href="#DejaVuSans-35"/>
     </g>
    </g>
   </g>
   <g id="xtick_24">
    <g id="line2d_35">
     <path d="M 620.743011 104.978653 
L 623.805328 105.684963 
" style="fill:none;stroke:#000000;stroke-linecap:square;stroke-width:0.8;"/>
    </g>
    <g id="text_33">
     <!-- 0.50 -->
     <g transform="translate(628.328761 110.817933)scale(0.1 -0.1)">
      <use xlink:href="#DejaVuSans-30"/>
      <use x="63.623047" xlink:href="#DejaVuSans-2e"/>
      <use x="95.410156" xlink:href="#DejaVuSans-35"/>
      <use x="159.033203" xlink:href="#DejaVuSans-30"/>
     </g>
    </g>
   </g>
   <g id="xtick_25">
    <g id="line2d_36">
     <path d="M 621.344978 91.743288 
L 624.427145 92.439655 
" style="fill:none;stroke:#000000;stroke-linecap:square;stroke-width:0.8;"/>
    </g>
    <g id="text_34">
     <!-- 0.75 -->
     <g transform="translate(629.045995 97.607372)scale(0.1 -0.1)">
      <use xlink:href="#DejaVuSans-30"/>
      <use x="63.623047" xlink:href="#DejaVuSans-2e"/>
      <use x="95.410156" xlink:href="#DejaVuSans-37"/>
      <use x="159.033203" xlink:href="#DejaVuSans-35"/>
     </g>
    </g>
   </g>
   <g id="xtick_26">
    <g id="line2d_37">
     <path d="M 621.954531 78.341124 
L 625.056807 79.027241 
" style="fill:none;stroke:#000000;stroke-linecap:square;stroke-width:0.8;"/>
    </g>
    <g id="text_35">
     <!-- 1.00 -->
     <g transform="translate(629.772242 84.230779)scale(0.1 -0.1)">
      <use xlink:href="#DejaVuSans-31"/>
      <use x="63.623047" xlink:href="#DejaVuSans-2e"/>
      <use x="95.410156" xlink:href="#DejaVuSans-30"/>
      <use x="159.033203" xlink:href="#DejaVuSans-30"/>
     </g>
    </g>
   </g>
  </g>
  <g id="axes_2">
   <g id="Poly3DCollection_1">
    <path clip-path="url(#pa12e4d2240)" d="M 529.969624 144.304511 
L 512.659508 144.711294 
L 515.630593 163.733122 
L 528.505058 163.422256 
L 529.969624 144.304511 
z
" style="fill:#1a6497;stroke:#333333;"/>
    <path clip-path="url(#pa12e4d2240)" d="M 530.773499 124.939496 
L 511.023567 125.390674 
L 512.659508 144.711294 
L 529.969624 144.304511 
L 530.773499 124.939496 
z
" style="fill:#1a6294;stroke:#333333;"/>
    <path clip-path="url(#pa12e4d2240)" d="M 546.719616 146.38512 
L 529.969624 144.304511 
L 528.505058 163.422256 
L 540.951356 165.011289 
L 546.719616 146.38512 
z
" style="fill:#1c6ba1;stroke:#333333;"/>
    <path clip-path="url(#pa12e4d2240)" d="M 512.659508 144.711294 
L 496.487532 147.569772 
L 503.624983 165.914959 
L 515.630593 163.733122 
L 512.659508 144.711294 
z
" style="fill:#185d8c;stroke:#333333;"/>
    <path clip-path="url(#pa12e4d2240)" d="M 549.894128 127.247963 
L 530.773499 124.939496 
L 529.969624 144.304511 
L 546.719616 146.38512 
L 549.894128 127.247963 
z
" style="fill:#1c6aa0;stroke:#333333;"/>
    <path clip-path="url(#pa12e4d2240)" d="M 511.023567 125.390674 
L 492.553286 128.563224 
L 496.487532 147.569772 
L 512.659508 144.711294 
L 511.023567 125.390674 
z
" style="fill:#175987;stroke:#333333;"/>
    <path clip-path="url(#pa12e4d2240)" d="M 528.505058 163.422256 
L 515.630593 163.733122 
L 519.630352 180.442558 
L 526.530349 180.272025 
L 528.505058 163.422256 
z
" style="fill:#1a6598;stroke:#333333;"/>
    <path clip-path="url(#pa12e4d2240)" d="M 540.951356 165.011289 
L 528.505058 163.422256 
L 526.530349 180.272025 
L 533.192527 181.143 
L 540.951356 165.011289 
z
" style="fill:#1b699f;stroke:#333333;"/>
    <path clip-path="url(#pa12e4d2240)" d="M 515.630593 163.733122 
L 503.624983 165.914959 
L 513.212111 181.637515 
L 519.630352 180.442558 
L 515.630593 163.733122 
z
" style="fill:#196091;stroke:#333333;"/>
    <path clip-path="url(#pa12e4d2240)" d="M 561.248417 150.7691 
L 546.719616 146.38512 
L 540.951356 165.011289 
L 551.705604 168.351513 
L 561.248417 150.7691 
z
" style="fill:#1d70a9;stroke:#333333;"/>
    <path clip-path="url(#pa12e4d2240)" d="M 496.487532 147.569772 
L 483.074653 152.625242 
L 493.71703 169.762491 
L 503.624983 165.914959 
L 496.487532 147.569772 
z
" style="fill:#165682;stroke:#333333;"/>
    <path clip-path="url(#pa12e4d2240)" d="M 530.825204 107.37709 
L 510.90953 107.820211 
L 511.023567 125.390674 
L 530.773499 124.939496 
L 530.825204 107.37709 
z
" style="fill:#195f90;stroke:#333333;"/>
    <path clip-path="url(#pa12e4d2240)" d="M 551.705604 168.351513 
L 540.951356 165.011289 
L 533.192527 181.143 
L 538.919179 182.967979 
L 551.705604 168.351513 
z
" style="fill:#1c6da4;stroke:#333333;"/>
    <path clip-path="url(#pa12e4d2240)" d="M 566.514434 132.118447 
L 549.894128 127.247963 
L 546.719616 146.38512 
L 561.248417 150.7691 
L 566.514434 132.118447 
z
" style="fill:#1d71ab;stroke:#333333;"/>
    <path clip-path="url(#pa12e4d2240)" d="M 503.624983 165.914959 
L 493.71703 169.762491 
L 507.950619 183.736513 
L 513.212111 181.637515 
L 503.624983 165.914959 
z
" style="fill:#185c8a;stroke:#333333;"/>
    <path clip-path="url(#pa12e4d2240)" d="M 492.553286 128.563224 
L 477.192247 134.183189 
L 483.074653 152.625242 
L 496.487532 147.569772 
L 492.553286 128.563224 
z
" style="fill:#15517a;stroke:#333333;"/>
    <path clip-path="url(#pa12e4d2240)" d="M 550.106952 109.644382 
L 530.825204 107.37709 
L 530.773499 124.939496 
L 549.894128 127.247963 
L 550.106952 109.644382 
z
" style="fill:#1b689d;stroke:#333333;"/>
    <path clip-path="url(#pa12e4d2240)" d="M 510.90953 107.820211 
L 492.282939 110.936241 
L 492.553286 128.563224 
L 511.023567 125.390674 
L 510.90953 107.820211 
z
" style="fill:#165682;stroke:#333333;"/>
    <path clip-path="url(#pa12e4d2240)" d="M 559.639765 173.123542 
L 551.705604 168.351513 
L 538.919179 182.967979 
L 543.100078 185.561567 
L 559.639765 173.123542 
z
" style="fill:#1d6fa8;stroke:#333333;"/>
    <path clip-path="url(#pa12e4d2240)" d="M 572.050954 157.056949 
L 561.248417 150.7691 
L 551.705604 168.351513 
L 559.639765 173.123542 
L 572.050954 157.056949 
z
" style="fill:#1e74af;stroke:#333333;"/>
    <path clip-path="url(#pa12e4d2240)" d="M 526.530349 180.272025 
L 519.630352 180.442558 
L 524.247859 192.984698 
L 524.247859 192.984698 
L 526.530349 180.272025 
z
" style="fill:#1a6497;stroke:#333333;"/>
    <path clip-path="url(#pa12e4d2240)" d="M 493.71703 169.762491 
L 486.963649 174.904129 
L 504.411662 186.525217 
L 507.950619 183.736513 
L 493.71703 169.762491 
z
" style="fill:#175885;stroke:#333333;"/>
    <path clip-path="url(#pa12e4d2240)" d="M 519.630352 180.442558 
L 513.212111 181.637515 
L 524.247859 192.984698 
L 524.247859 192.984698 
L 519.630352 180.442558 
z
" style="fill:#1a6295;stroke:#333333;"/>
    <path clip-path="url(#pa12e4d2240)" d="M 533.192527 181.143 
L 526.530349 180.272025 
L 524.247859 192.984698 
L 524.247859 192.984698 
L 533.192527 181.143 
z
" style="fill:#1a659a;stroke:#333333;"/>
    <path clip-path="url(#pa12e4d2240)" d="M 483.074653 152.625242 
L 473.841976 159.4106 
L 486.963649 174.904129 
L 493.71703 169.762491 
L 483.074653 152.625242 
z
" style="fill:#155079;stroke:#333333;"/>
    <path clip-path="url(#pa12e4d2240)" d="M 513.212111 181.637515 
L 507.950619 183.736513 
L 524.247859 192.984698 
L 524.247859 192.984698 
L 513.212111 181.637515 
z
" style="fill:#196192;stroke:#333333;"/>
    <path clip-path="url(#pa12e4d2240)" d="M 538.919179 182.967979 
L 533.192527 181.143 
L 524.247859 192.984698 
L 524.247859 192.984698 
L 538.919179 182.967979 
z
" style="fill:#1b679b;stroke:#333333;"/>
    <path clip-path="url(#pa12e4d2240)" d="M 566.869712 114.428418 
L 550.106952 109.644382 
L 549.894128 127.247963 
L 566.514434 132.118447 
L 566.869712 114.428418 
z
" style="fill:#1d6fa7;stroke:#333333;"/>
    <path clip-path="url(#pa12e4d2240)" d="M 492.282939 110.936241 
L 476.789009 116.456687 
L 477.192247 134.183189 
L 492.553286 128.563224 
L 492.282939 110.936241 
z
" style="fill:#144d74;stroke:#333333;"/>
    <path clip-path="url(#pa12e4d2240)" d="M 507.950619 183.736513 
L 504.411662 186.525217 
L 524.247859 192.984698 
L 524.247859 192.984698 
L 507.950619 183.736513 
z
" style="fill:#195f90;stroke:#333333;"/>
    <path clip-path="url(#pa12e4d2240)" d="M 543.100078 185.561567 
L 538.919179 182.967979 
L 524.247859 192.984698 
L 524.247859 192.984698 
L 543.100078 185.561567 
z
" style="fill:#1b689d;stroke:#333333;"/>
    <path clip-path="url(#pa12e4d2240)" d="M 578.924946 139.119255 
L 566.514434 132.118447 
L 561.248417 150.7691 
L 572.050954 157.056949 
L 578.924946 139.119255 
z
" style="fill:#1f75b1;stroke:#333333;"/>
    <path clip-path="url(#pa12e4d2240)" d="M 477.192247 134.183189 
L 466.561383 141.74439 
L 473.841976 159.4106 
L 483.074653 152.625242 
L 477.192247 134.183189 
z
" style="fill:#134a70;stroke:#333333;"/>
    <path clip-path="url(#pa12e4d2240)" d="M 530.100723 93.571146 
L 512.36707 93.957416 
L 510.90953 107.820211 
L 530.825204 107.37709 
L 530.100723 93.571146 
z
" style="fill:#185b8a;stroke:#333333;"/>
    <path clip-path="url(#pa12e4d2240)" d="M 563.867658 178.854971 
L 559.639765 173.123542 
L 543.100078 185.561567 
L 545.274164 188.65551 
L 563.867658 178.854971 
z
" style="fill:#1d70a9;stroke:#333333;"/>
    <path clip-path="url(#pa12e4d2240)" d="M 504.411662 186.525217 
L 502.99253 189.713169 
L 524.247859 192.984698 
L 524.247859 192.984698 
L 504.411662 186.525217 
z
" style="fill:#195f8f;stroke:#333333;"/>
    <path clip-path="url(#pa12e4d2240)" d="M 545.274164 188.65551 
L 543.100078 185.561567 
L 524.247859 192.984698 
L 524.247859 192.984698 
L 545.274164 188.65551 
z
" style="fill:#1b689d;stroke:#333333;"/>
    <path clip-path="url(#pa12e4d2240)" d="M 486.963649 174.904129 
L 484.143556 180.824007 
L 502.99253 189.713169 
L 504.411662 186.525217 
L 486.963649 174.904129 
z
" style="fill:#165581;stroke:#333333;"/>
    <path clip-path="url(#pa12e4d2240)" d="M 547.262038 95.546953 
L 530.100723 93.571146 
L 530.825204 107.37709 
L 550.106952 109.644382 
L 547.262038 95.546953 
z
" style="fill:#1a6396;stroke:#333333;"/>
    <path clip-path="url(#pa12e4d2240)" d="M 512.36707 93.957416 
L 495.796429 96.672063 
L 492.282939 110.936241 
L 510.90953 107.820211 
L 512.36707 93.957416 
z
" style="fill:#15537d;stroke:#333333;"/>
    <path clip-path="url(#pa12e4d2240)" d="M 502.99253 189.713169 
L 503.873494 192.960318 
L 524.247859 192.984698 
L 524.247859 192.984698 
L 502.99253 189.713169 
z
" style="fill:#185e8e;stroke:#333333;"/>
    <path clip-path="url(#pa12e4d2240)" d="M 545.182557 191.922417 
L 545.274164 188.65551 
L 524.247859 192.984698 
L 524.247859 192.984698 
L 545.182557 191.922417 
z
" style="fill:#1b689d;stroke:#333333;"/>
    <path clip-path="url(#pa12e4d2240)" d="M 577.910911 164.64755 
L 572.050954 157.056949 
L 559.639765 173.123542 
L 563.867658 178.854971 
L 577.910911 164.64755 
z
" style="fill:#1f75b1;stroke:#333333;"/>
    <path clip-path="url(#pa12e4d2240)" d="M 473.841976 159.4106 
L 469.873163 167.265086 
L 484.143556 180.824007 
L 486.963649 174.904129 
L 473.841976 159.4106 
z
" style="fill:#144c73;stroke:#333333;"/>
    <path clip-path="url(#pa12e4d2240)" d="M 579.390213 121.30598 
L 566.869712 114.428418 
L 566.514434 132.118447 
L 578.924946 139.119255 
L 579.390213 121.30598 
z
" style="fill:#1e73af;stroke:#333333;"/>
    <path clip-path="url(#pa12e4d2240)" d="M 503.873494 192.960318 
L 506.987307 195.911451 
L 524.247859 192.984698 
L 524.247859 192.984698 
L 503.873494 192.960318 
z
" style="fill:#195e8e;stroke:#333333;"/>
    <path clip-path="url(#pa12e4d2240)" d="M 542.806147 195.007822 
L 545.182557 191.922417 
L 524.247859 192.984698 
L 524.247859 192.984698 
L 542.806147 195.007822 
z
" style="fill:#1b679c;stroke:#333333;"/>
    <path clip-path="url(#pa12e4d2240)" d="M 476.789009 116.456687 
L 466.062234 123.885211 
L 466.561383 141.74439 
L 477.192247 134.183189 
L 476.789009 116.456687 
z
" style="fill:#124569;stroke:#333333;"/>
    <path clip-path="url(#pa12e4d2240)" d="M 562.153069 99.711056 
L 547.262038 95.546953 
L 550.106952 109.644382 
L 566.869712 114.428418 
L 562.153069 99.711056 
z
" style="fill:#1c6aa0;stroke:#333333;"/>
    <path clip-path="url(#pa12e4d2240)" d="M 563.850007 184.953105 
L 563.867658 178.854971 
L 545.274164 188.65551 
L 545.182557 191.922417 
L 563.850007 184.953105 
z
" style="fill:#1d6fa8;stroke:#333333;"/>
    <path clip-path="url(#pa12e4d2240)" d="M 484.143556 180.824007 
L 485.655401 186.90053 
L 503.873494 192.960318 
L 502.99253 189.713169 
L 484.143556 180.824007 
z
" style="fill:#16547f;stroke:#333333;"/>
    <path clip-path="url(#pa12e4d2240)" d="M 495.796429 96.672063 
L 482.046339 101.474493 
L 476.789009 116.456687 
L 492.282939 110.936241 
L 495.796429 96.672063 
z
" style="fill:#134a70;stroke:#333333;"/>
    <path clip-path="url(#pa12e4d2240)" d="M 506.987307 195.911451 
L 512.014457 198.235942 
L 524.247859 192.984698 
L 524.247859 192.984698 
L 506.987307 195.911451 
z
" style="fill:#195f8f;stroke:#333333;"/>
    <path clip-path="url(#pa12e4d2240)" d="M 538.379931 197.568614 
L 542.806147 195.007822 
L 524.247859 192.984698 
L 524.247859 192.984698 
L 538.379931 197.568614 
z
" style="fill:#1b669a;stroke:#333333;"/>
    <path clip-path="url(#pa12e4d2240)" d="M 585.722791 147.594439 
L 578.924946 139.119255 
L 572.050954 157.056949 
L 577.910911 164.64755 
L 585.722791 147.594439 
z
" style="fill:#1f77b4;stroke:#333333;"/>
    <path clip-path="url(#pa12e4d2240)" d="M 512.014457 198.235942 
L 518.409886 199.668113 
L 524.247859 192.984698 
L 524.247859 192.984698 
L 512.014457 198.235942 
z
" style="fill:#196091;stroke:#333333;"/>
    <path clip-path="url(#pa12e4d2240)" d="M 532.377349 199.313832 
L 538.379931 197.568614 
L 524.247859 192.984698 
L 524.247859 192.984698 
L 532.377349 199.313832 
z
" style="fill:#1a6498;stroke:#333333;"/>
    <path clip-path="url(#pa12e4d2240)" d="M 518.409886 199.668113 
L 525.461923 200.041951 
L 524.247859 192.984698 
L 524.247859 192.984698 
L 518.409886 199.668113 
z
" style="fill:#196193;stroke:#333333;"/>
    <path clip-path="url(#pa12e4d2240)" d="M 525.461923 200.041951 
L 532.377349 199.313832 
L 524.247859 192.984698 
L 524.247859 192.984698 
L 525.461923 200.041951 
z
" style="fill:#1a6395;stroke:#333333;"/>
    <path clip-path="url(#pa12e4d2240)" d="M 466.561383 141.74439 
L 461.919774 150.5231 
L 469.873163 167.265086 
L 473.841976 159.4106 
L 466.561383 141.74439 
z
" style="fill:#124568;stroke:#333333;"/>
    <path clip-path="url(#pa12e4d2240)" d="M 578.046634 172.770435 
L 577.910911 164.64755 
L 563.867658 178.854971 
L 563.850007 184.953105 
L 578.046634 172.770435 
z
" style="fill:#1e74b0;stroke:#333333;"/>
    <path clip-path="url(#pa12e4d2240)" d="M 559.485172 190.756597 
L 563.850007 184.953105 
L 545.182557 191.922417 
L 542.806147 195.007822 
L 559.485172 190.756597 
z
" style="fill:#1c6da5;stroke:#333333;"/>
    <path clip-path="url(#pa12e4d2240)" d="M 528.65329 85.220425 
L 515.288796 85.507734 
L 512.36707 93.957416 
L 530.100723 93.571146 
L 528.65329 85.220425 
z
" style="fill:#175784;stroke:#333333;"/>
    <path clip-path="url(#pa12e4d2240)" d="M 485.655401 186.90053 
L 491.436727 192.46447 
L 506.987307 195.911451 
L 503.873494 192.960318 
L 485.655401 186.90053 
z
" style="fill:#16547f;stroke:#333333;"/>
    <path clip-path="url(#pa12e4d2240)" d="M 469.873163 167.265086 
L 471.767565 175.374657 
L 485.655401 186.90053 
L 484.143556 180.824007 
L 469.873163 167.265086 
z
" style="fill:#134a70;stroke:#333333;"/>
    <path clip-path="url(#pa12e4d2240)" d="M 573.233109 105.685789 
L 562.153069 99.711056 
L 566.869712 114.428418 
L 579.390213 121.30598 
L 573.233109 105.685789 
z
" style="fill:#1d6ea7;stroke:#333333;"/>
    <path clip-path="url(#pa12e4d2240)" d="M 541.574609 86.689142 
L 528.65329 85.220425 
L 530.100723 93.571146 
L 547.262038 95.546953 
L 541.574609 86.689142 
z
" style="fill:#185e8e;stroke:#333333;"/>
    <path clip-path="url(#pa12e4d2240)" d="M 515.288796 85.507734 
L 502.82363 87.5245 
L 495.796429 96.672063 
L 512.36707 93.957416 
L 515.288796 85.507734 
z
" style="fill:#155079;stroke:#333333;"/>
    <path clip-path="url(#pa12e4d2240)" d="M 482.046339 101.474493 
L 472.572632 107.922917 
L 466.062234 123.885211 
L 476.789009 116.456687 
L 482.046339 101.474493 
z
" style="fill:#114365;stroke:#333333;"/>
    <path clip-path="url(#pa12e4d2240)" d="M 586.252785 129.633567 
L 579.390213 121.30598 
L 578.924946 139.119255 
L 585.722791 147.594439 
L 586.252785 129.633567 
z
" style="fill:#1f75b1;stroke:#333333;"/>
    <path clip-path="url(#pa12e4d2240)" d="M 466.062234 123.885211 
L 461.373808 132.511633 
L 461.919774 150.5231 
L 466.561383 141.74439 
L 466.062234 123.885211 
z
" style="fill:#114061;stroke:#333333;"/>
    <path clip-path="url(#pa12e4d2240)" d="M 551.163884 195.606246 
L 559.485172 190.756597 
L 542.806147 195.007822 
L 538.379931 197.568614 
L 551.163884 195.606246 
z
" style="fill:#1c6aa0;stroke:#333333;"/>
    <path clip-path="url(#pa12e4d2240)" d="M 552.74402 89.777267 
L 541.574609 86.689142 
L 547.262038 95.546953 
L 562.153069 99.711056 
L 552.74402 89.777267 
z
" style="fill:#1a6396;stroke:#333333;"/>
    <path clip-path="url(#pa12e4d2240)" d="M 491.436727 192.46447 
L 500.927174 196.874983 
L 512.014457 198.235942 
L 506.987307 195.911451 
L 491.436727 192.46447 
z
" style="fill:#165681;stroke:#333333;"/>
    <path clip-path="url(#pa12e4d2240)" d="M 502.82363 87.5245 
L 492.530723 91.082084 
L 482.046339 101.474493 
L 495.796429 96.672063 
L 502.82363 87.5245 
z
" style="fill:#13496f;stroke:#333333;"/>
    <path clip-path="url(#pa12e4d2240)" d="M 585.980479 156.693041 
L 585.722791 147.594439 
L 577.910911 164.64755 
L 578.046634 172.770435 
L 585.980479 156.693041 
z
" style="fill:#1f76b2;stroke:#333333;"/>
    <path clip-path="url(#pa12e4d2240)" d="M 461.919774 150.5231 
L 463.991491 159.616474 
L 471.767565 175.374657 
L 469.873163 167.265086 
L 461.919774 150.5231 
z
" style="fill:#114264;stroke:#333333;"/>
    <path clip-path="url(#pa12e4d2240)" d="M 572.252864 180.545882 
L 578.046634 172.770435 
L 563.850007 184.953105 
L 559.485172 190.756597 
L 572.252864 180.545882 
z
" style="fill:#1d71ab;stroke:#333333;"/>
    <path clip-path="url(#pa12e4d2240)" d="M 539.763652 198.928625 
L 551.163884 195.606246 
L 538.379931 197.568614 
L 532.377349 199.313832 
L 539.763652 198.928625 
z
" style="fill:#1b669a;stroke:#333333;"/>
    <path clip-path="url(#pa12e4d2240)" d="M 500.927174 196.874983 
L 513.098937 199.604788 
L 518.409886 199.668113 
L 512.014457 198.235942 
L 500.927174 196.874983 
z
" style="fill:#175986;stroke:#333333;"/>
    <path clip-path="url(#pa12e4d2240)" d="M 471.767565 175.374657 
L 479.507479 182.842489 
L 491.436727 192.46447 
L 485.655401 186.90053 
L 471.767565 175.374657 
z
" style="fill:#134a70;stroke:#333333;"/>
    <path clip-path="url(#pa12e4d2240)" d="M 526.566115 200.31891 
L 539.763652 198.928625 
L 532.377349 199.313832 
L 525.461923 200.041951 
L 526.566115 200.31891 
z
" style="fill:#196193;stroke:#333333;"/>
    <path clip-path="url(#pa12e4d2240)" d="M 513.098937 199.604788 
L 526.566115 200.31891 
L 525.461923 200.041951 
L 518.409886 199.668113 
L 513.098937 199.604788 
z
" style="fill:#185d8c;stroke:#333333;"/>
    <path clip-path="url(#pa12e4d2240)" d="M 579.253711 112.90193 
L 573.233109 105.685789 
L 579.390213 121.30598 
L 586.252785 129.633567 
L 579.253711 112.90193 
z
" style="fill:#1d70aa;stroke:#333333;"/>
    <path clip-path="url(#pa12e4d2240)" d="M 560.99151 94.191044 
L 552.74402 89.777267 
L 562.153069 99.711056 
L 573.233109 105.685789 
L 560.99151 94.191044 
z
" style="fill:#1b679c;stroke:#333333;"/>
    <path clip-path="url(#pa12e4d2240)" d="M 472.572632 107.922917 
L 468.489041 115.391234 
L 461.373808 132.511633 
L 466.062234 123.885211 
L 472.572632 107.922917 
z
" style="fill:#103e5e;stroke:#333333;"/>
    <path clip-path="url(#pa12e4d2240)" d="M 492.530723 91.082084 
L 485.50727 95.838533 
L 472.572632 107.922917 
L 482.046339 101.474493 
L 492.530723 91.082084 
z
" style="fill:#124366;stroke:#333333;"/>
    <path clip-path="url(#pa12e4d2240)" d="M 586.519714 138.575669 
L 586.252785 129.633567 
L 585.722791 147.594439 
L 585.980479 156.693041 
L 586.519714 138.575669 
z
" style="fill:#1e74b0;stroke:#333333;"/>
    <path clip-path="url(#pa12e4d2240)" d="M 526.621492 83.559894 
L 519.394064 83.714852 
L 515.288796 85.507734 
L 528.65329 85.220425 
L 526.621492 83.559894 
z
" style="fill:#16537e;stroke:#333333;"/>
    <path clip-path="url(#pa12e4d2240)" d="M 533.60027 84.351358 
L 526.621492 83.559894 
L 528.65329 85.220425 
L 541.574609 86.689142 
L 533.60027 84.351358 
z
" style="fill:#175885;stroke:#333333;"/>
    <path clip-path="url(#pa12e4d2240)" d="M 519.394064 83.714852 
L 512.670304 84.800768 
L 502.82363 87.5245 
L 515.288796 85.507734 
L 519.394064 83.714852 
z
" style="fill:#154f77;stroke:#333333;"/>
    <path clip-path="url(#pa12e4d2240)" d="M 461.373808 132.511633 
L 463.456651 141.449247 
L 463.991491 159.616474 
L 461.919774 150.5231 
L 461.373808 132.511633 
z
" style="fill:#103d5d;stroke:#333333;"/>
    <path clip-path="url(#pa12e4d2240)" d="M 561.003325 187.077343 
L 572.252864 180.545882 
L 559.485172 190.756597 
L 551.163884 195.606246 
L 561.003325 187.077343 
z
" style="fill:#1c6ca4;stroke:#333333;"/>
    <path clip-path="url(#pa12e4d2240)" d="M 479.507479 182.842489 
L 492.379048 188.791198 
L 500.927174 196.874983 
L 491.436727 192.46447 
L 479.507479 182.842489 
z
" style="fill:#144d74;stroke:#333333;"/>
    <path clip-path="url(#pa12e4d2240)" d="M 579.41961 165.430791 
L 585.980479 156.693041 
L 578.046634 172.770435 
L 572.252864 180.545882 
L 579.41961 165.430791 
z
" style="fill:#1e72ad;stroke:#333333;"/>
    <path clip-path="url(#pa12e4d2240)" d="M 539.600744 86.010025 
L 533.60027 84.351358 
L 541.574609 86.689142 
L 552.74402 89.777267 
L 539.600744 86.010025 
z
" style="fill:#185b8a;stroke:#333333;"/>
    <path clip-path="url(#pa12e4d2240)" d="M 512.670304 84.800768 
L 507.156308 86.708639 
L 492.530723 91.082084 
L 502.82363 87.5245 
L 512.670304 84.800768 
z
" style="fill:#134a70;stroke:#333333;"/>
    <path clip-path="url(#pa12e4d2240)" d="M 463.991491 159.616474 
L 472.79937 168.016949 
L 479.507479 182.842489 
L 471.767565 175.374657 
L 463.991491 159.616474 
z
" style="fill:#114365;stroke:#333333;"/>
    <path clip-path="url(#pa12e4d2240)" d="M 565.395028 99.49517 
L 560.99151 94.191044 
L 573.233109 105.685789 
L 579.253711 112.90193 
L 565.395028 99.49517 
z
" style="fill:#1b689e;stroke:#333333;"/>
    <path clip-path="url(#pa12e4d2240)" d="M 485.50727 95.838533 
L 482.564788 101.318156 
L 468.489041 115.391234 
L 472.572632 107.922917 
L 485.50727 95.838533 
z
" style="fill:#103f60;stroke:#333333;"/>
    <path clip-path="url(#pa12e4d2240)" d="M 543.984041 88.367935 
L 539.600744 86.010025 
L 552.74402 89.777267 
L 560.99151 94.191044 
L 543.984041 88.367935 
z
" style="fill:#185e8e;stroke:#333333;"/>
    <path clip-path="url(#pa12e4d2240)" d="M 579.408552 120.628379 
L 579.253711 112.90193 
L 586.252785 129.633567 
L 586.519714 138.575669 
L 579.408552 120.628379 
z
" style="fill:#1d6fa8;stroke:#333333;"/>
    <path clip-path="url(#pa12e4d2240)" d="M 545.469483 191.569859 
L 561.003325 187.077343 
L 551.163884 195.606246 
L 539.763652 198.928625 
L 545.469483 191.569859 
z
" style="fill:#1a669a;stroke:#333333;"/>
    <path clip-path="url(#pa12e4d2240)" d="M 492.379048 188.791198 
L 508.990996 192.485963 
L 513.098937 199.604788 
L 500.927174 196.874983 
L 492.379048 188.791198 
z
" style="fill:#15517b;stroke:#333333;"/>
    <path clip-path="url(#pa12e4d2240)" d="M 507.156308 86.708639 
L 503.444772 89.24422 
L 485.50727 95.838533 
L 492.530723 91.082084 
L 507.156308 86.708639 
z
" style="fill:#12476b;stroke:#333333;"/>
    <path clip-path="url(#pa12e4d2240)" d="M 468.489041 115.391234 
L 470.415845 123.106439 
L 463.456651 141.449247 
L 461.373808 132.511633 
L 468.489041 115.391234 
z
" style="fill:#103c5a;stroke:#333333;"/>
    <path clip-path="url(#pa12e4d2240)" d="M 527.419353 193.454157 
L 545.469483 191.569859 
L 539.763652 198.928625 
L 526.566115 200.31891 
L 527.419353 193.454157 
z
" style="fill:#195f8f;stroke:#333333;"/>
    <path clip-path="url(#pa12e4d2240)" d="M 508.990996 192.485963 
L 527.419353 193.454157 
L 526.566115 200.31891 
L 513.098937 199.604788 
L 508.990996 192.485963 
z
" style="fill:#175885;stroke:#333333;"/>
    <path clip-path="url(#pa12e4d2240)" d="M 579.907209 147.16503 
L 586.519714 138.575669 
L 585.980479 156.693041 
L 579.41961 165.430791 
L 579.907209 147.16503 
z
" style="fill:#1d70aa;stroke:#333333;"/>
    <path clip-path="url(#pa12e4d2240)" d="M 546.266418 91.181772 
L 543.984041 88.367935 
L 560.99151 94.191044 
L 565.395028 99.49517 
L 546.266418 91.181772 
z
" style="fill:#195f8f;stroke:#333333;"/>
    <path clip-path="url(#pa12e4d2240)" d="M 566.546538 172.792102 
L 579.41961 165.430791 
L 572.252864 180.545882 
L 561.003325 187.077343 
L 566.546538 172.792102 
z
" style="fill:#1c6ca3;stroke:#333333;"/>
    <path clip-path="url(#pa12e4d2240)" d="M 463.456651 141.449247 
L 472.33678 149.707627 
L 472.79937 168.016949 
L 463.991491 159.616474 
L 463.456651 141.449247 
z
" style="fill:#103e5d;stroke:#333333;"/>
    <path clip-path="url(#pa12e4d2240)" d="M 524.229324 89.118452 
L 519.394064 83.714852 
L 526.621492 83.559894 
L 524.229324 89.118452 
z
" style="fill:#15507a;stroke:#333333;"/>
    <path clip-path="url(#pa12e4d2240)" d="M 524.229324 89.118452 
L 526.621492 83.559894 
L 533.60027 84.351358 
L 524.229324 89.118452 
z
" style="fill:#15527c;stroke:#333333;"/>
    <path clip-path="url(#pa12e4d2240)" d="M 503.444772 89.24422 
L 501.953006 92.143938 
L 482.564788 101.318156 
L 485.50727 95.838533 
L 503.444772 89.24422 
z
" style="fill:#124467;stroke:#333333;"/>
    <path clip-path="url(#pa12e4d2240)" d="M 524.229324 89.118452 
L 512.670304 84.800768 
L 519.394064 83.714852 
L 524.229324 89.118452 
z
" style="fill:#154f77;stroke:#333333;"/>
    <path clip-path="url(#pa12e4d2240)" d="M 472.79937 168.016949 
L 487.55546 174.726972 
L 492.379048 188.791198 
L 479.507479 182.842489 
L 472.79937 168.016949 
z
" style="fill:#12466a;stroke:#333333;"/>
    <path clip-path="url(#pa12e4d2240)" d="M 565.389971 105.142228 
L 565.395028 99.49517 
L 579.253711 112.90193 
L 579.408552 120.628379 
L 565.389971 105.142228 
z
" style="fill:#1b689d;stroke:#333333;"/>
    <path clip-path="url(#pa12e4d2240)" d="M 524.229324 89.118452 
L 533.60027 84.351358 
L 539.600744 86.010025 
L 524.229324 89.118452 
z
" style="fill:#16537e;stroke:#333333;"/>
    <path clip-path="url(#pa12e4d2240)" d="M 524.229324 89.118452 
L 507.156308 86.708639 
L 512.670304 84.800768 
L 524.229324 89.118452 
z
" style="fill:#144d75;stroke:#333333;"/>
    <path clip-path="url(#pa12e4d2240)" d="M 482.564788 101.318156 
L 484.122477 106.946378 
L 470.415845 123.106439 
L 468.489041 115.391234 
L 482.564788 101.318156 
z
" style="fill:#103d5d;stroke:#333333;"/>
    <path clip-path="url(#pa12e4d2240)" d="M 524.229324 89.118452 
L 539.600744 86.010025 
L 543.984041 88.367935 
L 524.229324 89.118452 
z
" style="fill:#16547f;stroke:#333333;"/>
    <path clip-path="url(#pa12e4d2240)" d="M 524.229324 89.118452 
L 503.444772 89.24422 
L 507.156308 86.708639 
L 524.229324 89.118452 
z
" style="fill:#144c73;stroke:#333333;"/>
    <path clip-path="url(#pa12e4d2240)" d="M 524.229324 89.118452 
L 543.984041 88.367935 
L 546.266418 91.181772 
L 524.229324 89.118452 
z
" style="fill:#165480;stroke:#333333;"/>
    <path clip-path="url(#pa12e4d2240)" d="M 546.174994 94.154145 
L 546.266418 91.181772 
L 565.395028 99.49517 
L 565.389971 105.142228 
L 546.174994 94.154145 
z
" style="fill:#195e8e;stroke:#333333;"/>
    <path clip-path="url(#pa12e4d2240)" d="M 524.229324 89.118452 
L 501.953006 92.143938 
L 503.444772 89.24422 
L 524.229324 89.118452 
z
" style="fill:#144b71;stroke:#333333;"/>
    <path clip-path="url(#pa12e4d2240)" d="M 573.480527 128.028495 
L 579.408552 120.628379 
L 586.519714 138.575669 
L 579.907209 147.16503 
L 573.480527 128.028495 
z
" style="fill:#1c6ba2;stroke:#333333;"/>
    <path clip-path="url(#pa12e4d2240)" d="M 501.953006 92.143938 
L 502.871743 95.098735 
L 484.122477 106.946378 
L 482.564788 101.318156 
L 501.953006 92.143938 
z
" style="fill:#114265;stroke:#333333;"/>
    <path clip-path="url(#pa12e4d2240)" d="M 524.229324 89.118452 
L 546.266418 91.181772 
L 546.174994 94.154145 
L 524.229324 89.118452 
z
" style="fill:#16547f;stroke:#333333;"/>
    <path clip-path="url(#pa12e4d2240)" d="M 470.415845 123.106439 
L 478.341559 130.215019 
L 472.33678 149.707627 
L 463.456651 141.449247 
L 470.415845 123.106439 
z
" style="fill:#103c5b;stroke:#333333;"/>
    <path clip-path="url(#pa12e4d2240)" d="M 548.691452 177.866854 
L 566.546538 172.792102 
L 561.003325 187.077343 
L 545.469483 191.569859 
L 548.691452 177.866854 
z
" style="fill:#1a6497;stroke:#333333;"/>
    <path clip-path="url(#pa12e4d2240)" d="M 524.229324 89.118452 
L 502.871743 95.098735 
L 501.953006 92.143938 
L 524.229324 89.118452 
z
" style="fill:#134a71;stroke:#333333;"/>
    <path clip-path="url(#pa12e4d2240)" d="M 487.55546 174.726972 
L 506.667184 178.902834 
L 508.990996 192.485963 
L 492.379048 188.791198 
L 487.55546 174.726972 
z
" style="fill:#144b72;stroke:#333333;"/>
    <path clip-path="url(#pa12e4d2240)" d="M 524.229324 89.118452 
L 546.174994 94.154145 
L 543.687778 96.962538 
L 524.229324 89.118452 
z
" style="fill:#16537e;stroke:#333333;"/>
    <path clip-path="url(#pa12e4d2240)" d="M 566.923492 154.402778 
L 579.907209 147.16503 
L 579.41961 165.430791 
L 566.546538 172.792102 
L 566.923492 154.402778 
z
" style="fill:#1b6aa0;stroke:#333333;"/>
    <path clip-path="url(#pa12e4d2240)" d="M 524.229324 89.118452 
L 506.132438 97.785252 
L 502.871743 95.098735 
L 524.229324 89.118452 
z
" style="fill:#134b71;stroke:#333333;"/>
    <path clip-path="url(#pa12e4d2240)" d="M 560.865083 110.519856 
L 565.389971 105.142228 
L 579.408552 120.628379 
L 573.480527 128.028495 
L 560.865083 110.519856 
z
" style="fill:#1a6498;stroke:#333333;"/>
    <path clip-path="url(#pa12e4d2240)" d="M 472.33678 149.707627 
L 487.2215 156.305391 
L 487.55546 174.726972 
L 472.79937 168.016949 
L 472.33678 149.707627 
z
" style="fill:#114162;stroke:#333333;"/>
    <path clip-path="url(#pa12e4d2240)" d="M 524.229324 89.118452 
L 543.687778 96.962538 
L 539.049518 99.294276 
L 524.229324 89.118452 
z
" style="fill:#15527c;stroke:#333333;"/>
    <path clip-path="url(#pa12e4d2240)" d="M 543.687778 96.962538 
L 546.174994 94.154145 
L 565.389971 105.142228 
L 560.865083 110.519856 
L 543.687778 96.962538 
z
" style="fill:#185c8b;stroke:#333333;"/>
    <path clip-path="url(#pa12e4d2240)" d="M 484.122477 106.946378 
L 490.121058 112.10304 
L 478.341559 130.215019 
L 470.415845 123.106439 
L 484.122477 106.946378 
z
" style="fill:#103e5d;stroke:#333333;"/>
    <path clip-path="url(#pa12e4d2240)" d="M 527.900222 179.998143 
L 548.691452 177.866854 
L 545.469483 191.569859 
L 527.419353 193.454157 
L 527.900222 179.998143 
z
" style="fill:#185b8a;stroke:#333333;"/>
    <path clip-path="url(#pa12e4d2240)" d="M 524.229324 89.118452 
L 511.401464 99.902042 
L 506.132438 97.785252 
L 524.229324 89.118452 
z
" style="fill:#144b72;stroke:#333333;"/>
    <path clip-path="url(#pa12e4d2240)" d="M 506.667184 178.902834 
L 527.900222 179.998143 
L 527.419353 193.454157 
L 508.990996 192.485963 
L 506.667184 178.902834 
z
" style="fill:#16537d;stroke:#333333;"/>
    <path clip-path="url(#pa12e4d2240)" d="M 502.871743 95.098735 
L 506.132438 97.785252 
L 490.121058 112.10304 
L 484.122477 106.946378 
L 502.871743 95.098735 
z
" style="fill:#114365;stroke:#333333;"/>
    <path clip-path="url(#pa12e4d2240)" d="M 524.229324 89.118452 
L 539.049518 99.294276 
L 532.755989 100.883836 
L 524.229324 89.118452 
z
" style="fill:#15517a;stroke:#333333;"/>
    <path clip-path="url(#pa12e4d2240)" d="M 524.229324 89.118452 
L 518.107552 101.206561 
L 511.401464 99.902042 
L 524.229324 89.118452 
z
" style="fill:#144c73;stroke:#333333;"/>
    <path clip-path="url(#pa12e4d2240)" d="M 524.229324 89.118452 
L 532.755989 100.883836 
L 525.503524 101.547119 
L 524.229324 89.118452 
z
" style="fill:#154f78;stroke:#333333;"/>
    <path clip-path="url(#pa12e4d2240)" d="M 524.229324 89.118452 
L 525.503524 101.547119 
L 518.107552 101.206561 
L 524.229324 89.118452 
z
" style="fill:#144e75;stroke:#333333;"/>
    <path clip-path="url(#pa12e4d2240)" d="M 561.94972 134.247812 
L 573.480527 128.028495 
L 579.907209 147.16503 
L 566.923492 154.402778 
L 561.94972 134.247812 
z
" style="fill:#1a6599;stroke:#333333;"/>
    <path clip-path="url(#pa12e4d2240)" d="M 539.049518 99.294276 
L 543.687778 96.962538 
L 560.865083 110.519856 
L 552.221708 115.016195 
L 539.049518 99.294276 
z
" style="fill:#175986;stroke:#333333;"/>
    <path clip-path="url(#pa12e4d2240)" d="M 478.341559 130.215019 
L 491.538926 135.880236 
L 487.2215 156.305391 
L 472.33678 149.707627 
L 478.341559 130.215019 
z
" style="fill:#103f5f;stroke:#333333;"/>
    <path clip-path="url(#pa12e4d2240)" d="M 506.132438 97.785252 
L 511.401464 99.902042 
L 499.982104 116.192885 
L 490.121058 112.10304 
L 506.132438 97.785252 
z
" style="fill:#124467;stroke:#333333;"/>
    <path clip-path="url(#pa12e4d2240)" d="M 548.909449 159.39312 
L 566.923492 154.402778 
L 566.546538 172.792102 
L 548.691452 177.866854 
L 548.909449 159.39312 
z
" style="fill:#196193;stroke:#333333;"/>
    <path clip-path="url(#pa12e4d2240)" d="M 487.2215 156.305391 
L 506.504534 160.411946 
L 506.667184 178.902834 
L 487.55546 174.726972 
L 487.2215 156.305391 
z
" style="fill:#12476b;stroke:#333333;"/>
    <path clip-path="url(#pa12e4d2240)" d="M 552.221708 115.016195 
L 560.865083 110.519856 
L 573.480527 128.028495 
L 561.94972 134.247812 
L 552.221708 115.016195 
z
" style="fill:#195f90;stroke:#333333;"/>
    <path clip-path="url(#pa12e4d2240)" d="M 490.121058 112.10304 
L 499.982104 116.192885 
L 491.538926 135.880236 
L 478.341559 130.215019 
L 490.121058 112.10304 
z
" style="fill:#114061;stroke:#333333;"/>
    <path clip-path="url(#pa12e4d2240)" d="M 532.755989 100.883836 
L 539.049518 99.294276 
L 552.221708 115.016195 
L 540.370137 118.097875 
L 532.755989 100.883836 
z
" style="fill:#165580;stroke:#333333;"/>
    <path clip-path="url(#pa12e4d2240)" d="M 511.401464 99.902042 
L 518.107552 101.206561 
L 512.637851 118.725185 
L 499.982104 116.192885 
L 511.401464 99.902042 
z
" style="fill:#13476c;stroke:#333333;"/>
    <path clip-path="url(#pa12e4d2240)" d="M 527.930099 161.489147 
L 548.909449 159.39312 
L 548.691452 177.866854 
L 527.900222 179.998143 
L 527.930099 161.489147 
z
" style="fill:#175885;stroke:#333333;"/>
    <path clip-path="url(#pa12e4d2240)" d="M 506.504534 160.411946 
L 527.930099 161.489147 
L 527.900222 179.998143 
L 506.667184 178.902834 
L 506.504534 160.411946 
z
" style="fill:#154f77;stroke:#333333;"/>
    <path clip-path="url(#pa12e4d2240)" d="M 525.503524 101.547119 
L 532.755989 100.883836 
L 540.370137 118.097875 
L 526.644577 119.387762 
L 525.503524 101.547119 
z
" style="fill:#155079;stroke:#333333;"/>
    <path clip-path="url(#pa12e4d2240)" d="M 518.107552 101.206561 
L 525.503524 101.547119 
L 526.644577 119.387762 
L 512.637851 118.725185 
L 518.107552 101.206561 
z
" style="fill:#144b72;stroke:#333333;"/>
    <path clip-path="url(#pa12e4d2240)" d="M 546.015328 138.527293 
L 561.94972 134.247812 
L 566.923492 154.402778 
L 548.909449 159.39312 
L 546.015328 138.527293 
z
" style="fill:#185d8d;stroke:#333333;"/>
    <path clip-path="url(#pa12e4d2240)" d="M 491.538926 135.880236 
L 508.581794 139.400122 
L 506.504534 160.411946 
L 487.2215 156.305391 
L 491.538926 135.880236 
z
" style="fill:#124568;stroke:#333333;"/>
    <path clip-path="url(#pa12e4d2240)" d="M 540.370137 118.097875 
L 552.221708 115.016195 
L 561.94972 134.247812 
L 546.015328 138.527293 
L 540.370137 118.097875 
z
" style="fill:#175987;stroke:#333333;"/>
    <path clip-path="url(#pa12e4d2240)" d="M 499.982104 116.192885 
L 512.637851 118.725185 
L 508.581794 139.400122 
L 491.538926 135.880236 
L 499.982104 116.192885 
z
" style="fill:#124568;stroke:#333333;"/>
    <path clip-path="url(#pa12e4d2240)" d="M 527.493074 140.322642 
L 546.015328 138.527293 
L 548.909449 159.39312 
L 527.930099 161.489147 
L 527.493074 140.322642 
z
" style="fill:#165580;stroke:#333333;"/>
    <path clip-path="url(#pa12e4d2240)" d="M 526.644577 119.387762 
L 540.370137 118.097875 
L 546.015328 138.527293 
L 527.493074 140.322642 
L 526.644577 119.387762 
z
" style="fill:#15527c;stroke:#333333;"/>
    <path clip-path="url(#pa12e4d2240)" d="M 508.581794 139.400122 
L 527.493074 140.322642 
L 527.930099 161.489147 
L 506.504534 160.411946 
L 508.581794 139.400122 
z
" style="fill:#144c73;stroke:#333333;"/>
    <path clip-path="url(#pa12e4d2240)" d="M 512.637851 118.725185 
L 526.644577 119.387762 
L 527.493074 140.322642 
L 508.581794 139.400122 
L 512.637851 118.725185 
z
" style="fill:#144b71;stroke:#333333;"/>
   </g>
  </g>
 </g>
 <defs>
  <clipPath id="pb6a0979d6b">
   <rect height="221.76" width="253.636364" x="90" y="34.56"/>
  </clipPath>
  <clipPath id="pa12e4d2240">
   <rect height="221.76" width="253.636364" x="394.363636" y="34.56"/>
  </clipPath>
 </defs>
</svg>
